<svg xmlns="http://www.w3.org/2000/svg" viewBox="0 0 312 216"><defs><style>.cls-1{fill:#009245;}.cls-2{fill:#06c;}.cls-3{fill:#fff;}</style></defs><title>bolsapac </title><g id="dibujo"><path class="cls-1" d="M161,56.48H130.17l2.24-4.83c4-8.57,7.58-17.1,9.39-22.27l.79-2.27h5.1l.86,2.13c2.28,5.71,5.5,12.81,10.12,22.36Z"/></g><g id="Capa_3" data-name="Capa 3"><path class="cls-2" d="M14.29,18.26H59.15c19.17,0,32.53,7.16,32.53,19.5,0,12.72-12.59,20-32.43,20H40.12v20.3H14.29ZM40.12,44.64h15c7,0,11-2.14,11-6.72,0-3.82-3.07-6.57-11-6.57h-15Z"/><path class="cls-3" d="M43.51,81.47H10.89V14.86H59.15c21.83,0,35.93,9,35.93,22.9,0,14.44-13.73,23.42-35.83,23.42H43.51ZM17.69,74.68h19V54.39H59.25c18.18,0,29-6.22,29-16.63,0-9.78-11.44-16.11-29.14-16.11H17.69ZM55.11,48H36.72V28H55.11c13,0,14.45,7,14.45,10S68.15,48,55.11,48Zm-11.6-6.79h11.6c5.08,0,7.66-1.12,7.66-3.32,0-2.62-4.17-3.17-7.66-3.17H43.51Z"/><path class="cls-2" d="M129.84,66.92l-5,11.16h-26L129,18.26h33.79L194.9,78.08H167.05l-5.42-11.16Zm25.77-13.84c-5.2-10.77-8.21-17.57-10.22-22.58H145c-1.73,5-5.26,13.44-9.51,22.58Z"/><path class="cls-3" d="M200.58,81.47H164.92l-5.41-11.15H132l-5,11.15H93.28l33.6-66.61h37.91Zm-31.4-6.79h20l-28.5-53H131.06l-26.74,53h18.29l5-11.15h36.11ZM161,56.48H130.17l2.24-4.83c4-8.57,7.58-17.1,9.39-22.27l.79-2.27h5.1l.86,2.13c2.28,5.71,5.5,12.81,10.12,22.36Zm-20.52-6h10c-2-5-2.84-7.58-5-13C144.18,40.73,142.5,45.5,140.5,50.5Z"/><path class="cls-2" d="M296.44,57.79c-3.63,12.6-17.12,21.65-42.76,21.65-29.55,0-44.39-14.16-44.39-31.3,0-16.37,14.61-31.25,45.49-31.25,27,0,39.78,10.59,41.86,21.43H270.5c-1.13-3.31-4.43-8.22-15.83-8.22-12.1,0-18.06,7.12-18.06,17.62,0,9.53,4.72,18.33,18.13,18.33,9.67,0,13.64-3.18,15.92-8.26Z"/><path class="cls-3" d="M253.68,82.84c-14.66,0-26.89-3.43-35.35-9.93a30.73,30.73,0,0,1-12.44-24.77c0-9.59,4.44-18.28,12.49-24.46,8.69-6.66,21.27-10.18,36.4-10.18,29.91,0,43,12.49,45.19,24.18l.78,4H268.07l-.79-2.31c-1.33-3.92-5.58-5.91-12.61-5.91C242.55,33.5,240,41.23,240,47.72c0,6.81,2.55,14.94,14.73,14.94,9.24,0,11.4-3.1,12.82-6.26l.9-2H301l-1.25,4.34C297.11,67.73,287.68,82.84,253.68,82.84Zm1.1-62.55c-31.07,0-42.1,15-42.1,27.85,0,17,16.1,27.91,41,27.91,19.19,0,32.34-5.24,37.7-14.87H272.72c-3.36,5.7-9,8.27-18,8.27-13.48,0-21.53-8.12-21.53-21.73,0-13,8.23-21,21.46-21,10.77,0,15.76,4.07,18,8.22h19.18a21.9,21.9,0,0,0-8.53-8.45C276.45,22.43,266.57,20.29,254.78,20.29Z"/><path class="cls-2" d="M9.14,138a11.38,11.38,0,0,1,3.46.5,7.32,7.32,0,0,1,2.69,1.48A6.72,6.72,0,0,1,17,142.4a9,9,0,0,1,.61,3.42,9.1,9.1,0,0,1-.73,3.84,7.51,7.51,0,0,1-2,2.66A8,8,0,0,1,12,153.87a12.48,12.48,0,0,1-3.55.49h-5V138ZM7,151.6H8.2a8.4,8.4,0,0,0,2.13-.27,4.48,4.48,0,0,0,1.81-.94,4.58,4.58,0,0,0,1.24-1.77,7.05,7.05,0,0,0,.47-2.8,4.94,4.94,0,0,0-1.4-3.78,5.31,5.31,0,0,0-3.78-1.32H7Z"/><path class="cls-2" d="M31.27,149.05H23v.11a2.5,2.5,0,0,0,1,2.21,4.54,4.54,0,0,0,2.68.73,7.28,7.28,0,0,0,1.84-.21A9.7,9.7,0,0,0,30,151.4l.63,2.42a8.74,8.74,0,0,1-1.77.58,11.1,11.1,0,0,1-2.53.25,9,9,0,0,1-2.64-.38,5.78,5.78,0,0,1-2.16-1.16,5.51,5.51,0,0,1-1.47-2,6.8,6.8,0,0,1-.55-2.87,7.86,7.86,0,0,1,.44-2.69,6,6,0,0,1,1.26-2.07,5.89,5.89,0,0,1,2-1.34,6.51,6.51,0,0,1,2.55-.48,5.36,5.36,0,0,1,4,1.53,5.91,5.91,0,0,1,1.5,4.3Zm-3.54-2.37a3.83,3.83,0,0,0-.12-1,2.45,2.45,0,0,0-.37-.82,2.1,2.1,0,0,0-.66-.56,2,2,0,0,0-1-.21,2.29,2.29,0,0,0-1.72.71,3.07,3.07,0,0,0-.8,1.9Z"/><path class="cls-2" d="M41.22,144.91a7,7,0,0,0-3-.73,2.42,2.42,0,0,0-1.29.29.89.89,0,0,0-.46.78,1,1,0,0,0,.41.81,5.73,5.73,0,0,0,1.62.68l.79.23a5.27,5.27,0,0,1,2.44,1.35,3.21,3.21,0,0,1,.84,2.3,3.54,3.54,0,0,1-1.42,2.94,6.15,6.15,0,0,1-3.84,1.09,9.42,9.42,0,0,1-4.25-.88l.78-2.56a9.11,9.11,0,0,0,1.59.64,5.77,5.77,0,0,0,1.69.25,2.76,2.76,0,0,0,1.53-.33,1,1,0,0,0,0-1.69,7.21,7.21,0,0,0-1.77-.66l-.81-.24a4.92,4.92,0,0,1-2.29-1.38,3.76,3.76,0,0,1,.55-5.05,5.41,5.41,0,0,1,3.57-1.06,9.37,9.37,0,0,1,4,.8Z"/><path class="cls-2" d="M45.25,143a10.28,10.28,0,0,1,2.37-1,9.55,9.55,0,0,1,2.66-.35,7.3,7.3,0,0,1,2,.26,4.08,4.08,0,0,1,1.59.82,3.54,3.54,0,0,1,1,1.43,5.48,5.48,0,0,1,.35,2.09v8.07H52.59l-.31-1.27h-.1a4.1,4.1,0,0,1-1.53,1.14,5.11,5.11,0,0,1-2.14.42,5,5,0,0,1-1.8-.3,4.13,4.13,0,0,1-1.33-.81,3.17,3.17,0,0,1-.82-1.21,4.17,4.17,0,0,1-.27-1.51,3.55,3.55,0,0,1,.45-1.83A3.74,3.74,0,0,1,46,147.73a5.77,5.77,0,0,1,1.88-.73,10.75,10.75,0,0,1,2.33-.24h1.57V146a1.48,1.48,0,0,0-.54-1.27,2.47,2.47,0,0,0-1.49-.4,5.26,5.26,0,0,0-1.55.24,8.64,8.64,0,0,0-1.76.75Zm6.56,5.88-1.12,0a3.94,3.94,0,0,0-2.21.53,1.43,1.43,0,0,0-.63,1.16,1.29,1.29,0,0,0,.54,1.21,2.24,2.24,0,0,0,1.21.33,2.37,2.37,0,0,0,1.29-.39,3,3,0,0,0,.92-.91Z"/><path class="cls-2" d="M58.22,154.36V142H60.9l.39,2.23a4.6,4.6,0,0,1,1.4-1.74,4.33,4.33,0,0,1,3.49-.62,2.88,2.88,0,0,1,.78.31l-.57,2.73a3.53,3.53,0,0,0-.73-.27,4,4,0,0,0-1-.12,2.85,2.85,0,0,0-2.12.85,3.78,3.78,0,0,0-.85,2.77v6.27Z"/><path class="cls-2" d="M68.37,154.36V142h2.68l.39,2.23a4.72,4.72,0,0,1,1.41-1.74,3.82,3.82,0,0,1,2.42-.75,3.92,3.92,0,0,1,1.07.13,3.17,3.17,0,0,1,.78.31l-.58,2.73a3.65,3.65,0,0,0-.72-.27,4.1,4.1,0,0,0-1-.12,2.86,2.86,0,0,0-2.12.85,3.82,3.82,0,0,0-.84,2.77v6.27Z"/><path class="cls-2" d="M90,148.06a7.26,7.26,0,0,1-.49,2.76,5.9,5.9,0,0,1-1.37,2.07,6.06,6.06,0,0,1-2,1.31,7,7,0,0,1-2.53.45,7.31,7.31,0,0,1-2.51-.42A5.45,5.45,0,0,1,79,153a5.57,5.57,0,0,1-1.33-2,7.14,7.14,0,0,1-.48-2.7,7.55,7.55,0,0,1,.49-2.82,5.94,5.94,0,0,1,1.37-2.08,5.72,5.72,0,0,1,2-1.29,7,7,0,0,1,2.53-.44,7.3,7.3,0,0,1,2.51.41,5.7,5.7,0,0,1,2,1.21,5.48,5.48,0,0,1,1.33,2A7.39,7.39,0,0,1,90,148.06Zm-3.56.13a6.08,6.08,0,0,0-.24-1.82,3.41,3.41,0,0,0-.62-1.22,2.5,2.5,0,0,0-.91-.69,2.7,2.7,0,0,0-1.07-.22,2.78,2.78,0,0,0-1,.19,2.3,2.3,0,0,0-.89.65,3.36,3.36,0,0,0-.62,1.21,6.42,6.42,0,0,0-.24,1.9A5.72,5.72,0,0,0,81,150a3.37,3.37,0,0,0,.63,1.21,2.65,2.65,0,0,0,.92.7,2.41,2.41,0,0,0,1,.24,2.83,2.83,0,0,0,1-.2,2.23,2.23,0,0,0,.89-.66,3.44,3.44,0,0,0,.62-1.21A6.08,6.08,0,0,0,86.39,148.19Z"/><path class="cls-2" d="M92.53,154.36V135.78h3.41v18.58Z"/><path class="cls-2" d="M99.27,154.36V135.78h3.41v18.58Z"/><path class="cls-2" d="M118,148.06a7.26,7.26,0,0,1-.49,2.76,5.9,5.9,0,0,1-1.37,2.07,6.06,6.06,0,0,1-2,1.31,7.05,7.05,0,0,1-2.53.45,7.31,7.31,0,0,1-2.51-.42,5.57,5.57,0,0,1-2-1.22,5.68,5.68,0,0,1-1.32-2,7,7,0,0,1-.49-2.7,7.54,7.54,0,0,1,.5-2.82,5.81,5.81,0,0,1,1.37-2.08,5.72,5.72,0,0,1,2-1.29,7,7,0,0,1,2.52-.44,7.36,7.36,0,0,1,2.52.41,5.7,5.7,0,0,1,2,1.21,5.48,5.48,0,0,1,1.33,2A7.39,7.39,0,0,1,118,148.06Zm-3.57.13a6.11,6.11,0,0,0-.23-1.82,3.58,3.58,0,0,0-.62-1.22,2.54,2.54,0,0,0-.92-.69,2.62,2.62,0,0,0-1.06-.22,2.75,2.75,0,0,0-1,.19,2.3,2.3,0,0,0-.89.65,3.36,3.36,0,0,0-.62,1.21,6.42,6.42,0,0,0-.24,1.9A5.72,5.72,0,0,0,109,150a3.22,3.22,0,0,0,.63,1.21,2.72,2.72,0,0,0,.91.7,2.45,2.45,0,0,0,1.06.24,2.83,2.83,0,0,0,1-.2,2.3,2.3,0,0,0,.89-.66,3.62,3.62,0,0,0,.62-1.21A6.11,6.11,0,0,0,114.42,148.19Z"/><path class="cls-2" d="M125.07,142h3.78l2.21,5.91.83,3H132l.8-3,1.93-5.88h3.54l-4.55,12.86a20.88,20.88,0,0,1-.88,2,9.33,9.33,0,0,1-1.17,1.81,7.71,7.71,0,0,1-1.63,1.48,8.26,8.26,0,0,1-2.21,1.07l-1.43-2.68a6.55,6.55,0,0,0,2.45-1.51,5.12,5.12,0,0,0,1.35-2.37l.1-.34Z"/><path class="cls-2" d="M156.63,138v2.76h-6.85v4.35h6.27v2.73h-6.27v6.56h-3.57V138Z"/><path class="cls-2" d="M158.34,143a10.28,10.28,0,0,1,2.37-1,9.6,9.6,0,0,1,2.66-.35,7.26,7.26,0,0,1,2,.26,4,4,0,0,1,1.59.82,3.66,3.66,0,0,1,1,1.43,5.68,5.68,0,0,1,.35,2.09v8.07h-2.68l-.32-1.27h-.1a4.15,4.15,0,0,1-1.52,1.14,5.19,5.19,0,0,1-2.15.42,5,5,0,0,1-1.8-.3,4.13,4.13,0,0,1-1.33-.81,3.29,3.29,0,0,1-.82-1.21,4.17,4.17,0,0,1-.27-1.51,3.46,3.46,0,0,1,.46-1.83,3.62,3.62,0,0,1,1.26-1.26A5.91,5.91,0,0,1,161,147a10.69,10.69,0,0,1,2.33-.24h1.56V146a1.48,1.48,0,0,0-.54-1.27,2.47,2.47,0,0,0-1.49-.4,5.32,5.32,0,0,0-1.55.24,8.64,8.64,0,0,0-1.76.75Zm6.56,5.88-1.12,0a4,4,0,0,0-2.21.53,1.44,1.44,0,0,0-.62,1.16,1.3,1.3,0,0,0,.53,1.21,2.27,2.27,0,0,0,1.21.33,2.37,2.37,0,0,0,1.29-.39,2.76,2.76,0,0,0,.92-.91Z"/><path class="cls-2" d="M183.62,148.19a7.63,7.63,0,0,1-.44,2.69,6,6,0,0,1-1.22,2,5.33,5.33,0,0,1-1.85,1.29,6.1,6.1,0,0,1-2.32.44,5.19,5.19,0,0,1-2.08-.38,4.66,4.66,0,0,1-1.51-1.05h-.11l-.23,1.14h-2.5V135.78h3.44V143a4.8,4.8,0,0,1,1.52-.94,5.2,5.2,0,0,1,1.86-.33,5,5,0,0,1,4,1.71A7.26,7.26,0,0,1,183.62,148.19Zm-3.56.08a4.78,4.78,0,0,0-.76-2.93,2.52,2.52,0,0,0-2.13-1,2.78,2.78,0,0,0-1.36.35,3.69,3.69,0,0,0-1,.8v5.7a2.69,2.69,0,0,0,.88.65,2.57,2.57,0,0,0,1.13.26,3.15,3.15,0,0,0,1.21-.24,2.9,2.9,0,0,0,1-.7,3.46,3.46,0,0,0,.72-1.18A5.13,5.13,0,0,0,180.06,148.27Z"/><path class="cls-2" d="M186.1,154.36V142h2.68l.39,2.23a4.6,4.6,0,0,1,1.4-1.74,4.33,4.33,0,0,1,3.49-.62,2.88,2.88,0,0,1,.78.31l-.57,2.73a3.53,3.53,0,0,0-.73-.27,4,4,0,0,0-1-.12,2.85,2.85,0,0,0-2.12.85,3.78,3.78,0,0,0-.85,2.77v6.27Z"/><path class="cls-2" d="M198.15,139.29a1.83,1.83,0,0,1-1.38-.51,1.87,1.87,0,0,1,0-2.52,1.83,1.83,0,0,1,1.38-.51,1.86,1.86,0,0,1,1.37.51,1.71,1.71,0,0,1,.51,1.26,1.74,1.74,0,0,1-.5,1.26A1.83,1.83,0,0,1,198.15,139.29Zm-1.74,15.07V142h3.46v12.41Z"/><path class="cls-2" d="M209.81,152.1a4.37,4.37,0,0,0,1.47-.22,9.18,9.18,0,0,0,1.06-.43l.65,2.39a6.8,6.8,0,0,1-1.51.55,8.64,8.64,0,0,1-2.16.26,8.06,8.06,0,0,1-2.63-.42,5.73,5.73,0,0,1-3.54-3.25,7.58,7.58,0,0,1,0-5.44,6,6,0,0,1,1.38-2.06,6.21,6.21,0,0,1,2.14-1.33,7.74,7.74,0,0,1,2.73-.46,10.42,10.42,0,0,1,1.71.15,6.51,6.51,0,0,1,1.88.68l-.72,2.39a6.34,6.34,0,0,0-1.19-.5,4.39,4.39,0,0,0-1.29-.2,3.54,3.54,0,0,0-2.61,1,3.88,3.88,0,0,0-1,2.89,4.78,4.78,0,0,0,.33,1.89,3.52,3.52,0,0,0,.84,1.23,3.12,3.12,0,0,0,1.18.68A4.24,4.24,0,0,0,209.81,152.1Z"/><path class="cls-2" d="M215.26,143a10,10,0,0,1,2.36-1,9.6,9.6,0,0,1,2.66-.35,7.21,7.21,0,0,1,2,.26,4,4,0,0,1,1.59.82,3.66,3.66,0,0,1,1,1.43,5.68,5.68,0,0,1,.35,2.09v8.07H222.6l-.32-1.27h-.1a4.15,4.15,0,0,1-1.52,1.14,5.16,5.16,0,0,1-2.15.42,5,5,0,0,1-1.8-.3,4,4,0,0,1-1.32-.81,3.06,3.06,0,0,1-.82-1.21,4,4,0,0,1-.28-1.51,3.46,3.46,0,0,1,.46-1.83,3.62,3.62,0,0,1,1.26-1.26,5.91,5.91,0,0,1,1.89-.73,10.69,10.69,0,0,1,2.33-.24h1.56V146a1.5,1.5,0,0,0-.53-1.27,2.52,2.52,0,0,0-1.5-.4,5.37,5.37,0,0,0-1.55.24,8.64,8.64,0,0,0-1.76.75Zm6.56,5.88-1.12,0a4,4,0,0,0-2.22.53,1.44,1.44,0,0,0-.62,1.16,1.3,1.3,0,0,0,.53,1.21,2.27,2.27,0,0,0,1.21.33,2.37,2.37,0,0,0,1.29-.39,2.89,2.89,0,0,0,.93-.91Z"/><path class="cls-2" d="M234.73,152.1a4.45,4.45,0,0,0,1.47-.22,8.28,8.28,0,0,0,1.05-.43l.66,2.39a7,7,0,0,1-1.51.55,8.66,8.66,0,0,1-2.17.26,8.1,8.1,0,0,1-2.63-.42,6,6,0,0,1-2.12-1.23,5.9,5.9,0,0,1-1.42-2,7.08,7.08,0,0,1-.52-2.79,6.87,6.87,0,0,1,.5-2.65,6,6,0,0,1,1.38-2.06,6.26,6.26,0,0,1,2.13-1.33,7.84,7.84,0,0,1,2.74-.46,10.39,10.39,0,0,1,1.7.15,6.57,6.57,0,0,1,1.89.68l-.73,2.39a6.25,6.25,0,0,0-1.18-.5,4.45,4.45,0,0,0-1.29-.2,3.57,3.57,0,0,0-2.62,1,3.87,3.87,0,0,0-1,2.89,5,5,0,0,0,.32,1.89,3.41,3.41,0,0,0,.85,1.23,3.15,3.15,0,0,0,1.17.68A4.3,4.3,0,0,0,234.73,152.1Z"/><path class="cls-2" d="M241.73,139.29a1.83,1.83,0,0,1-1.38-.51,1.86,1.86,0,0,1,0-2.52,2.11,2.11,0,0,1,2.75,0,1.71,1.71,0,0,1,.51,1.26,1.74,1.74,0,0,1-.5,1.26A1.83,1.83,0,0,1,241.73,139.29ZM240,154.36V142h3.46v12.41Z"/><path class="cls-2" d="M259.1,148.06a7.26,7.26,0,0,1-.5,2.76,5.88,5.88,0,0,1-1.36,2.07,6.2,6.2,0,0,1-2.05,1.31,7,7,0,0,1-2.52.45,7.36,7.36,0,0,1-2.52-.42,5.45,5.45,0,0,1-2-1.22,5.7,5.7,0,0,1-1.33-2,7.14,7.14,0,0,1-.48-2.7,7.55,7.55,0,0,1,.49-2.82,5.94,5.94,0,0,1,1.37-2.08,5.67,5.67,0,0,1,2.05-1.29,7,7,0,0,1,2.52-.44,7.3,7.3,0,0,1,2.51.41,5.84,5.84,0,0,1,2,1.21,5.75,5.75,0,0,1,1.33,2A7.39,7.39,0,0,1,259.1,148.06Zm-3.57.13a6.45,6.45,0,0,0-.23-1.82,3.43,3.43,0,0,0-.64-1.22,2.53,2.53,0,0,0-2-.91,2.82,2.82,0,0,0-1,.19,2.27,2.27,0,0,0-.88.65,3.53,3.53,0,0,0-.63,1.21,6.45,6.45,0,0,0-.23,1.9,5.74,5.74,0,0,0,.23,1.76,3.53,3.53,0,0,0,.63,1.21,2.45,2.45,0,0,0,.91.7,2.48,2.48,0,0,0,1.06.24,2.84,2.84,0,0,0,1-.2,2.2,2.2,0,0,0,.88-.66,3.63,3.63,0,0,0,.63-1.21A6.45,6.45,0,0,0,255.53,148.19Zm-2-8.09H251l1.82-3.88h3.46Z"/><path class="cls-2" d="M265.14,154.36h-3.47V142h2.71l.42,1.58a6.3,6.3,0,0,1,1.89-1.36,5.28,5.28,0,0,1,2.27-.48,4.21,4.21,0,0,1,3.15,1.11,4.49,4.49,0,0,1,1.1,3.26v8.3h-3.47v-7.94a2.3,2.3,0,0,0-.46-1.52,1.73,1.73,0,0,0-1.38-.56,3.15,3.15,0,0,0-1.42.38,4.54,4.54,0,0,0-1.34,1Z"/><path class="cls-2" d="M290.36,135.78h3.47v18.58h-2.48L291,153h-.13a4.16,4.16,0,0,1-1.34,1.15,4.59,4.59,0,0,1-2.28.49,5.53,5.53,0,0,1-2.19-.44,5.28,5.28,0,0,1-1.77-1.28,5.87,5.87,0,0,1-1.18-2,8,8,0,0,1-.43-2.73,8.63,8.63,0,0,1,.39-2.68,5.88,5.88,0,0,1,1.12-2.05,4.74,4.74,0,0,1,1.8-1.3,6.21,6.21,0,0,1,2.44-.45,5.18,5.18,0,0,1,1.68.26,3.56,3.56,0,0,1,1.26.67Zm0,9.42a2.7,2.7,0,0,0-.88-.7,2.56,2.56,0,0,0-1.2-.29,3.29,3.29,0,0,0-1.18.21,2.54,2.54,0,0,0-1,.66,3.32,3.32,0,0,0-.69,1.2,5.37,5.37,0,0,0-.26,1.81,6.4,6.4,0,0,0,.23,1.8,4,4,0,0,0,.63,1.25,2.27,2.27,0,0,0,.92.72,2.73,2.73,0,0,0,1.13.24,2.5,2.5,0,0,0,1.42-.4,2.69,2.69,0,0,0,.87-.95Z"/><path class="cls-2" d="M308.07,149.05h-8.26v.11a2.51,2.51,0,0,0,1.05,2.21,4.52,4.52,0,0,0,2.68.73,7.19,7.19,0,0,0,1.83-.21,10.25,10.25,0,0,0,1.45-.49l.62,2.42a8.74,8.74,0,0,1-1.77.58,11,11,0,0,1-2.52.25,9.13,9.13,0,0,1-2.65-.38,5.93,5.93,0,0,1-2.16-1.16,5.76,5.76,0,0,1-1.47-2,7,7,0,0,1-.54-2.87,7.63,7.63,0,0,1,.44-2.69,5.71,5.71,0,0,1,1.26-2.07,5.79,5.79,0,0,1,2-1.34,6.51,6.51,0,0,1,2.55-.48,5.37,5.37,0,0,1,4,1.53,5.91,5.91,0,0,1,1.5,4.3Zm-3.54-2.37a3.83,3.83,0,0,0-.12-1,2.29,2.29,0,0,0-.38-.82,2,2,0,0,0-.65-.56,2,2,0,0,0-1-.21,2.28,2.28,0,0,0-1.72.71,3.14,3.14,0,0,0-.81,1.9Z"/><path class="cls-2" d="M3.48,165.39h11v2.86H7.16v3.87h6.65V175H7.16v4.54h7.43v2.86H3.48Z"/><path class="cls-2" d="M20.72,182.35H17.14V169.51h2.8l.43,1.64a6.81,6.81,0,0,1,1.95-1.41,5.54,5.54,0,0,1,2.36-.5,4.33,4.33,0,0,1,3.25,1.16,4.59,4.59,0,0,1,1.14,3.36v8.59H25.49v-8.21a2.41,2.41,0,0,0-.49-1.58,1.76,1.76,0,0,0-1.42-.57,3.24,3.24,0,0,0-1.47.39,5,5,0,0,0-1.39,1.06Z"/><path class="cls-2" d="M40.29,169.51h3.79l-4.55,12.84H35.39L31,169.51H34.8l1.88,6.4.78,3.88h.11l.78-3.88Z"/><path class="cls-2" d="M45.88,170.64a10.81,10.81,0,0,1,2.45-1,10.21,10.21,0,0,1,2.75-.36,7.76,7.76,0,0,1,2.11.27,4.34,4.34,0,0,1,1.64.85,3.63,3.63,0,0,1,1.05,1.48,5.81,5.81,0,0,1,.36,2.16v8.35H53.47L53.15,181H53a4.34,4.34,0,0,1-1.57,1.18,5.33,5.33,0,0,1-2.22.43,5.11,5.11,0,0,1-1.86-.31A4,4,0,0,1,46,181.5a3.35,3.35,0,0,1-.85-1.25,4.27,4.27,0,0,1-.28-1.56,3.6,3.6,0,0,1,.47-1.9,3.79,3.79,0,0,1,1.3-1.31,6.29,6.29,0,0,1,2-.75,11.52,11.52,0,0,1,2.41-.24h1.62v-.78a1.54,1.54,0,0,0-.56-1.31,2.48,2.48,0,0,0-1.54-.41,5.65,5.65,0,0,0-1.6.24,9.29,9.29,0,0,0-1.82.78Zm6.78,6.08-1.15,0a4.07,4.07,0,0,0-2.29.55,1.48,1.48,0,0,0-.65,1.2,1.36,1.36,0,0,0,.55,1.25,2.49,2.49,0,0,0,2.59-.07,2.85,2.85,0,0,0,.95-.94Z"/><path class="cls-2" d="M67.3,172.58a7.19,7.19,0,0,0-3.07-.76,2.5,2.5,0,0,0-1.33.3.93.93,0,0,0-.47.81,1,1,0,0,0,.42.83,5.64,5.64,0,0,0,1.68.7l.81.24a5.61,5.61,0,0,1,2.53,1.4,3.34,3.34,0,0,1,.86,2.37,3.64,3.64,0,0,1-1.47,3,6.37,6.37,0,0,1-4,1.13,9.7,9.7,0,0,1-4.38-.91l.8-2.64a9.37,9.37,0,0,0,1.64.66,6.17,6.17,0,0,0,1.75.25,2.93,2.93,0,0,0,1.58-.33,1,1,0,0,0,.5-.88,1,1,0,0,0-.49-.87,7.31,7.31,0,0,0-1.83-.69L62,177a5.1,5.1,0,0,1-2.37-1.43,3.53,3.53,0,0,1-.75-2.36,3.58,3.58,0,0,1,1.31-2.86,5.62,5.62,0,0,1,3.69-1.1,9.69,9.69,0,0,1,4.14.84Z"/><path class="cls-2" d="M82.56,176.86H74v.1a2.61,2.61,0,0,0,1.07,2.29,4.78,4.78,0,0,0,2.78.75,7.63,7.63,0,0,0,1.89-.21,9.41,9.41,0,0,0,1.5-.51l.64,2.5a8.87,8.87,0,0,1-1.83.61,11.67,11.67,0,0,1-2.61.25,9.29,9.29,0,0,1-2.73-.39,6.16,6.16,0,0,1-2.23-1.2A5.61,5.61,0,0,1,71,179a7,7,0,0,1-.57-3,8,8,0,0,1,.46-2.79,6.05,6.05,0,0,1,1.31-2.14,5.9,5.9,0,0,1,2-1.38,6.77,6.77,0,0,1,2.63-.5A5.54,5.54,0,0,1,81,170.83a6.11,6.11,0,0,1,1.55,4.44Zm-3.66-2.45a4.15,4.15,0,0,0-.12-1,2.45,2.45,0,0,0-.39-.85,2,2,0,0,0-1.67-.79,2.35,2.35,0,0,0-1.78.73,3.27,3.27,0,0,0-.83,2Z"/><path class="cls-2" d="M92.84,172.58a7.19,7.19,0,0,0-3.07-.76,2.47,2.47,0,0,0-1.33.3.91.91,0,0,0-.47.81,1,1,0,0,0,.41.83,5.61,5.61,0,0,0,1.69.7l.8.24a5.56,5.56,0,0,1,2.53,1.4,3.29,3.29,0,0,1,.86,2.37,3.65,3.65,0,0,1-1.46,3,6.37,6.37,0,0,1-4,1.13,9.71,9.71,0,0,1-4.39-.91l.81-2.64a9.37,9.37,0,0,0,1.64.66,6.12,6.12,0,0,0,1.75.25,2.89,2.89,0,0,0,1.57-.33,1,1,0,0,0,.5-.88,1,1,0,0,0-.48-.87,7.66,7.66,0,0,0-1.83-.69l-.84-.24a5.12,5.12,0,0,1-2.36-1.43,3.49,3.49,0,0,1-.76-2.36,3.56,3.56,0,0,1,1.32-2.86,5.62,5.62,0,0,1,3.69-1.1,9.69,9.69,0,0,1,4.14.84Z"/><path class="cls-2" d="M114,165.39v2.86h-7.08v4.49h6.48v2.82h-6.48v6.79h-3.69v-17Z"/><path class="cls-2" d="M116.46,182.35V163.13H120v19.22Z"/><path class="cls-2" d="M134.76,176.86h-8.53v.1a2.59,2.59,0,0,0,1.08,2.29,4.72,4.72,0,0,0,2.77.75,7.63,7.63,0,0,0,1.89-.21,9.41,9.41,0,0,0,1.5-.51l.64,2.5a8.87,8.87,0,0,1-1.83.61,11.67,11.67,0,0,1-2.61.25,9.34,9.34,0,0,1-2.73-.39,6.24,6.24,0,0,1-2.23-1.2,5.72,5.72,0,0,1-1.52-2,7,7,0,0,1-.57-3,8.25,8.25,0,0,1,.46-2.79,6.2,6.2,0,0,1,1.31-2.14,5.9,5.9,0,0,1,2-1.38,6.77,6.77,0,0,1,2.63-.5,5.54,5.54,0,0,1,4.16,1.59,6.11,6.11,0,0,1,1.55,4.44Zm-3.66-2.45a4.15,4.15,0,0,0-.12-1,2.45,2.45,0,0,0-.39-.85,2,2,0,0,0-1.67-.79,2.35,2.35,0,0,0-1.78.73,3.27,3.27,0,0,0-.83,2Z"/><path class="cls-2" d="M144.45,175.78l4.54,6.57h-4.11l-1.35-2L142.21,178,141,180.33l-1.29,2h-4.06l4.49-6.57-4.22-6.27h4l1.32,2,1.18,2.23,1.13-2.23,1.21-2h3.9Z"/><path class="cls-2" d="M152.92,166.77a1.89,1.89,0,0,1-1.42-.53,1.8,1.8,0,0,1-.52-1.3,1.82,1.82,0,0,1,.52-1.31,2.19,2.19,0,0,1,2.83,0,1.9,1.9,0,0,1,0,2.61A1.91,1.91,0,0,1,152.92,166.77Zm-1.8,15.58V169.51h3.58v12.84Z"/><path class="cls-2" d="M171,176a8.09,8.09,0,0,1-.46,2.77,6.51,6.51,0,0,1-1.26,2.11,5.35,5.35,0,0,1-1.92,1.33,6.06,6.06,0,0,1-2.39.46,5.33,5.33,0,0,1-2.15-.39,4.73,4.73,0,0,1-1.56-1.09h-.11l-.24,1.19H158.3V163.13h3.56v7.43a4.83,4.83,0,0,1,1.57-1,5.32,5.32,0,0,1,1.92-.35,5.08,5.08,0,0,1,4.13,1.78A7.43,7.43,0,0,1,171,176Zm-3.69.08a5,5,0,0,0-.78-3,2.6,2.6,0,0,0-2.21-1,2.86,2.86,0,0,0-1.4.36,3.43,3.43,0,0,0-1,.82v5.89a2.85,2.85,0,0,0,.9.68A2.77,2.77,0,0,0,164,180a3.44,3.44,0,0,0,1.26-.24,3.06,3.06,0,0,0,1.07-.72,3.43,3.43,0,0,0,.74-1.23A5.13,5.13,0,0,0,167.29,176.05Z"/><path class="cls-2" d="M173.64,182.35V163.13h3.53v19.22Z"/><path class="cls-2" d="M191.94,176.86h-8.53v.1a2.61,2.61,0,0,0,1.07,2.29,4.78,4.78,0,0,0,2.78.75,7.63,7.63,0,0,0,1.89-.21,9.41,9.41,0,0,0,1.5-.51l.64,2.5a8.87,8.87,0,0,1-1.83.61,11.67,11.67,0,0,1-2.61.25,9.29,9.29,0,0,1-2.73-.39,6.16,6.16,0,0,1-2.23-1.2,5.61,5.61,0,0,1-1.52-2,7,7,0,0,1-.57-3,8,8,0,0,1,.46-2.79,6.05,6.05,0,0,1,1.31-2.14,5.9,5.9,0,0,1,2-1.38,6.77,6.77,0,0,1,2.63-.5,5.54,5.54,0,0,1,4.16,1.59,6.11,6.11,0,0,1,1.55,4.44Zm-3.66-2.45a4.15,4.15,0,0,0-.12-1,2.45,2.45,0,0,0-.39-.85,2,2,0,0,0-1.67-.79,2.35,2.35,0,0,0-1.78.73,3.27,3.27,0,0,0-.83,2Z"/><path class="cls-2" d="M202.22,172.58a7.19,7.19,0,0,0-3.07-.76,2.47,2.47,0,0,0-1.33.3.91.91,0,0,0-.47.81,1,1,0,0,0,.41.83,5.61,5.61,0,0,0,1.69.7l.8.24a5.56,5.56,0,0,1,2.53,1.4,3.29,3.29,0,0,1,.86,2.37,3.65,3.65,0,0,1-1.46,3,6.37,6.37,0,0,1-4,1.13,9.71,9.71,0,0,1-4.39-.91l.81-2.64a9.37,9.37,0,0,0,1.64.66A6.12,6.12,0,0,0,198,180a2.89,2.89,0,0,0,1.57-.33,1,1,0,0,0,.5-.88,1,1,0,0,0-.48-.87,7.66,7.66,0,0,0-1.83-.69l-.84-.24a5.12,5.12,0,0,1-2.36-1.43,3.49,3.49,0,0,1-.76-2.36,3.56,3.56,0,0,1,1.32-2.86,5.62,5.62,0,0,1,3.69-1.1,9.69,9.69,0,0,1,4.14.84Z"/><path class="cls-2" d="M224.17,165.39v2.91h-4.79v14H215.7v-14H211v-2.91Z"/><path class="cls-2" d="M235.85,176.67h-8.53v.1a2.83,2.83,0,0,0,1.08,2.44,4.54,4.54,0,0,0,2.77.79,7.72,7.72,0,0,0,1.9-.21,9.63,9.63,0,0,0,1.49-.51l.65,2.5a9.3,9.3,0,0,1-1.83.61,11.79,11.79,0,0,1-2.61.25,9.29,9.29,0,0,1-2.73-.39,6.2,6.2,0,0,1-2.24-1.2,5.72,5.72,0,0,1-1.52-2,7,7,0,0,1-.56-3,8.25,8.25,0,0,1,.45-2.79,6.2,6.2,0,0,1,1.31-2.14,5.9,5.9,0,0,1,2-1.38,6.79,6.79,0,0,1,2.64-.5,5.55,5.55,0,0,1,4.16,1.59,6.1,6.1,0,0,1,1.54,4.44Zm-3.66-2.26a4.15,4.15,0,0,0-.12-1,2.45,2.45,0,0,0-.39-.85A1.94,1.94,0,0,0,231,172a2,2,0,0,0-1-.22,2.33,2.33,0,0,0-1.77.73,3.22,3.22,0,0,0-.84,2Zm-1.88-6.81h-2.56l1.89-4h3.58Z"/><path class="cls-2" d="M245.11,180a4.72,4.72,0,0,0,1.52-.22,9.59,9.59,0,0,0,1.09-.45l.67,2.48a7.67,7.67,0,0,1-1.56.56,8.74,8.74,0,0,1-2.23.27,8.29,8.29,0,0,1-2.72-.43,6.15,6.15,0,0,1-2.19-1.28,6,6,0,0,1-1.47-2.08,7.81,7.81,0,0,1,0-5.63,6.15,6.15,0,0,1,3.64-3.49,7.81,7.81,0,0,1,2.82-.49,10,10,0,0,1,1.76.16,6.68,6.68,0,0,1,2,.7l-.75,2.48a6.08,6.08,0,0,0-1.22-.53,4.73,4.73,0,0,0-1.34-.2,3.68,3.68,0,0,0-2.7,1,4,4,0,0,0-1,3,5.08,5.08,0,0,0,.34,1.95,3.47,3.47,0,0,0,.88,1.28,3.2,3.2,0,0,0,1.21.7A4.51,4.51,0,0,0,245.11,180Z"/><path class="cls-2" d="M254.36,182.35h-3.57V169.51h2.79l.44,1.64a6.55,6.55,0,0,1,1.95-1.41,5.47,5.47,0,0,1,2.35-.5,4.37,4.37,0,0,1,3.26,1.16,4.63,4.63,0,0,1,1.13,3.36v8.59h-3.58v-8.21a2.35,2.35,0,0,0-.49-1.58,1.76,1.76,0,0,0-1.42-.57,3.24,3.24,0,0,0-1.47.39,5,5,0,0,0-1.39,1.06Z"/><path class="cls-2" d="M268.06,166.77a1.92,1.92,0,0,1-1.43-.53,1.79,1.79,0,0,1-.51-1.3,1.81,1.81,0,0,1,.51-1.31,2.2,2.2,0,0,1,2.84,0,1.9,1.9,0,0,1,0,2.61A1.91,1.91,0,0,1,268.06,166.77Zm-1.8,15.58V169.51h3.58v12.84Z"/><path class="cls-2" d="M280.12,180a4.72,4.72,0,0,0,1.52-.22,10.42,10.42,0,0,0,1.09-.45l.67,2.48a7.67,7.67,0,0,1-1.56.56,8.76,8.76,0,0,1-2.24.27,8.28,8.28,0,0,1-2.71-.43,6.1,6.1,0,0,1-2.2-1.28,6,6,0,0,1-1.46-2.08,7.81,7.81,0,0,1,0-5.63,6.17,6.17,0,0,1,3.63-3.49,7.86,7.86,0,0,1,2.83-.49,10.09,10.09,0,0,1,1.76.16,6.68,6.68,0,0,1,1.95.7l-.75,2.48a6.17,6.17,0,0,0-1.23-.53,4.66,4.66,0,0,0-1.33-.2,3.68,3.68,0,0,0-2.7,1,4,4,0,0,0-1,3,4.9,4.9,0,0,0,.34,1.95,3.45,3.45,0,0,0,.87,1.28,3.28,3.28,0,0,0,1.21.7A4.62,4.62,0,0,0,280.12,180Z"/><path class="cls-2" d="M297.47,175.83a7.63,7.63,0,0,1-.51,2.86,6.11,6.11,0,0,1-3.52,3.48,7.24,7.24,0,0,1-2.61.47,7.55,7.55,0,0,1-2.6-.43,5.88,5.88,0,0,1-2.07-1.26,6,6,0,0,1-1.38-2.06,7.42,7.42,0,0,1-.49-2.79,7.84,7.84,0,0,1,.51-2.92,6,6,0,0,1,3.52-3.48,7.24,7.24,0,0,1,2.61-.46,7.55,7.55,0,0,1,2.6.43,6,6,0,0,1,2.07,1.25A5.77,5.77,0,0,1,297,173,7.47,7.47,0,0,1,297.47,175.83Zm-3.69.14a6.49,6.49,0,0,0-.24-1.89,3.55,3.55,0,0,0-.64-1.26,2.55,2.55,0,0,0-.94-.71,2.69,2.69,0,0,0-1.11-.23,3,3,0,0,0-1.07.2,2.28,2.28,0,0,0-.92.67,3.67,3.67,0,0,0-.65,1.25,6.83,6.83,0,0,0-.24,2,6.06,6.06,0,0,0,.24,1.81,3.83,3.83,0,0,0,.66,1.26,2.82,2.82,0,0,0,.95.72,2.58,2.58,0,0,0,1.09.24,2.79,2.79,0,0,0,1.07-.2,2.28,2.28,0,0,0,.92-.68,3.67,3.67,0,0,0,.64-1.25A6.51,6.51,0,0,0,293.78,176Z"/><path class="cls-2" d="M307.78,172.58a7.19,7.19,0,0,0-3.07-.76,2.47,2.47,0,0,0-1.33.3.91.91,0,0,0-.47.81,1,1,0,0,0,.41.83,5.61,5.61,0,0,0,1.69.7l.8.24a5.56,5.56,0,0,1,2.53,1.4,3.29,3.29,0,0,1,.86,2.37,3.65,3.65,0,0,1-1.46,3,6.37,6.37,0,0,1-4,1.13,9.71,9.71,0,0,1-4.39-.91l.81-2.64a9.37,9.37,0,0,0,1.64.66,6.12,6.12,0,0,0,1.75.25,2.89,2.89,0,0,0,1.57-.33,1,1,0,0,0,.5-.88,1,1,0,0,0-.48-.87,7.66,7.66,0,0,0-1.83-.69l-.84-.24a5.12,5.12,0,0,1-2.36-1.43,3.49,3.49,0,0,1-.76-2.36,3.56,3.56,0,0,1,1.32-2.86,5.62,5.62,0,0,1,3.69-1.1,9.69,9.69,0,0,1,4.14.84Z"/><path class="cls-2" d="M8.31,207.07a5,5,0,0,1-1.21-.15,3.73,3.73,0,0,1-1-.39v5.68H3V195.57H5.37l.33,1.24a5.62,5.62,0,0,1,1.55-1,4.72,4.72,0,0,1,1.95-.39,4.39,4.39,0,0,1,3.49,1.49A6.16,6.16,0,0,1,14,201a7.09,7.09,0,0,1-.45,2.62,5.41,5.41,0,0,1-1.22,1.91,4.89,4.89,0,0,1-1.81,1.16A6.14,6.14,0,0,1,8.31,207.07Zm0-9.34a2.57,2.57,0,0,0-1.37.36,3.87,3.87,0,0,0-.89.74v5.35a2.76,2.76,0,0,0,1.81.59,2.65,2.65,0,0,0,1-.2,2.53,2.53,0,0,0,.92-.63,3.13,3.13,0,0,0,.65-1.14,5.06,5.06,0,0,0,.25-1.71,5.61,5.61,0,0,0-.15-1.34,3.3,3.3,0,0,0-.46-1.06,2.28,2.28,0,0,0-.75-.7A2,2,0,0,0,8.36,197.73Z"/><path class="cls-2" d="M16.36,196.6a9,9,0,0,1,2.14-.9,8.79,8.79,0,0,1,2.39-.32,6.61,6.61,0,0,1,1.84.24,3.54,3.54,0,0,1,1.43.74,3.14,3.14,0,0,1,.92,1.29,5,5,0,0,1,.32,1.89v7.27H23l-.28-1.15h-.1a3.67,3.67,0,0,1-1.37,1,4.7,4.7,0,0,1-1.94.37,4.51,4.51,0,0,1-1.62-.27,3.56,3.56,0,0,1-1.19-.73,2.75,2.75,0,0,1-.74-1.09,3.58,3.58,0,0,1-.25-1.36A3.2,3.2,0,0,1,15.9,202,3.36,3.36,0,0,1,17,200.83a5.29,5.29,0,0,1,1.7-.66,10,10,0,0,1,2.1-.21h1.41v-.68a1.33,1.33,0,0,0-.48-1.14,2.21,2.21,0,0,0-1.35-.36A5,5,0,0,0,19,198a8.73,8.73,0,0,0-1.58.68Zm5.91,5.31-1,0a3.59,3.59,0,0,0-2,.48,1.28,1.28,0,0,0-.56,1.05,1.18,1.18,0,0,0,.48,1.09,2.09,2.09,0,0,0,1.09.29,2.15,2.15,0,0,0,1.16-.35,2.41,2.41,0,0,0,.83-.82Z"/><path class="cls-2" d="M28.05,206.81V195.62h2.42l.35,2a4.12,4.12,0,0,1,1.27-1.58,3.42,3.42,0,0,1,2.18-.68,3.5,3.5,0,0,1,1,.12,3.18,3.18,0,0,1,.71.28l-.52,2.47a2.61,2.61,0,0,0-.66-.25,3.68,3.68,0,0,0-.94-.11,2.6,2.6,0,0,0-1.91.77,3.43,3.43,0,0,0-.76,2.5v5.65Z"/><path class="cls-2" d="M37,196.6a9.09,9.09,0,0,1,2.13-.9,8.92,8.92,0,0,1,2.4-.32,6.61,6.61,0,0,1,1.84.24,3.61,3.61,0,0,1,1.43.74,3.14,3.14,0,0,1,.92,1.29,5,5,0,0,1,.32,1.89v7.27H43.66l-.28-1.15h-.1a3.75,3.75,0,0,1-1.37,1,4.7,4.7,0,0,1-1.94.37,4.51,4.51,0,0,1-1.62-.27,3.46,3.46,0,0,1-1.19-.73,2.75,2.75,0,0,1-.74-1.09,3.58,3.58,0,0,1-.25-1.36,3.2,3.2,0,0,1,.41-1.65,3.27,3.27,0,0,1,1.14-1.14,5.29,5.29,0,0,1,1.7-.66,10,10,0,0,1,2.1-.21h1.41v-.68a1.33,1.33,0,0,0-.48-1.14,2.21,2.21,0,0,0-1.35-.36,5,5,0,0,0-1.4.21,8.73,8.73,0,0,0-1.58.68ZM43,201.91l-1,0a3.57,3.57,0,0,0-2,.48,1.28,1.28,0,0,0-.56,1.05,1.18,1.18,0,0,0,.48,1.09,2.09,2.09,0,0,0,1.09.29,2.15,2.15,0,0,0,1.16-.35,2.41,2.41,0,0,0,.83-.82Z"/><path class="cls-2" d="M54.22,206.81V190.05H57.3v16.76Z"/><path class="cls-2" d="M60.39,196.6a9.34,9.34,0,0,1,2.14-.9,8.84,8.84,0,0,1,2.39-.32,6.69,6.69,0,0,1,1.85.24,3.68,3.68,0,0,1,1.43.74,3.12,3.12,0,0,1,.91,1.29,4.85,4.85,0,0,1,.32,1.89v7.27H67l-.28-1.15h-.09a3.71,3.71,0,0,1-1.38,1,4.65,4.65,0,0,1-1.93.37,4.51,4.51,0,0,1-1.62-.27,3.61,3.61,0,0,1-1.2-.73,2.86,2.86,0,0,1-.74-1.09,3.78,3.78,0,0,1-.24-1.36,3.11,3.11,0,0,1,.41-1.65,3.33,3.33,0,0,1,1.13-1.14,5.44,5.44,0,0,1,1.71-.66,10,10,0,0,1,2.1-.21h1.41v-.68a1.34,1.34,0,0,0-.49-1.14,2.21,2.21,0,0,0-1.35-.36,4.94,4.94,0,0,0-1.39.21,8.5,8.5,0,0,0-1.59.68Zm5.92,5.31-1,0a3.61,3.61,0,0,0-2,.48,1.3,1.3,0,0,0-.56,1.05,1.18,1.18,0,0,0,.48,1.09,2.11,2.11,0,0,0,1.09.29,2.19,2.19,0,0,0,1.17-.35,2.6,2.6,0,0,0,.83-.82Z"/><path class="cls-2" d="M80.91,192v14.78H77.69V192Z"/><path class="cls-2" d="M87.08,206.81H84V195.62H86.4l.38,1.43a5.71,5.71,0,0,1,1.7-1.23,4.77,4.77,0,0,1,2-.44,3.79,3.79,0,0,1,2.84,1,4,4,0,0,1,1,2.94v7.48H91.24v-7.16a2,2,0,0,0-.43-1.37,1.53,1.53,0,0,0-1.24-.5,2.79,2.79,0,0,0-1.28.34,4.09,4.09,0,0,0-1.21.92Z"/><path class="cls-2" d="M104.43,190.05h3.12v16.76h-2.23l-.33-1.22h-.12a3.76,3.76,0,0,1-1.2,1,4.25,4.25,0,0,1-2.06.44,4.82,4.82,0,0,1-2-.4,4.64,4.64,0,0,1-1.6-1.15A5.31,5.31,0,0,1,97,203.69a7.22,7.22,0,0,1-.39-2.46,7.94,7.94,0,0,1,.35-2.42A5.2,5.2,0,0,1,98,197a4.47,4.47,0,0,1,1.62-1.18,5.66,5.66,0,0,1,2.21-.41,4.73,4.73,0,0,1,1.51.24,3.07,3.07,0,0,1,1.14.61Zm0,8.5a2.54,2.54,0,0,0-.8-.63,2.33,2.33,0,0,0-1.08-.26,2.94,2.94,0,0,0-1.07.19,2.27,2.27,0,0,0-.89.6,2.82,2.82,0,0,0-.62,1.08,4.83,4.83,0,0,0-.24,1.63,5.59,5.59,0,0,0,.21,1.62,3.46,3.46,0,0,0,.57,1.12,2.1,2.1,0,0,0,.83.66,2.52,2.52,0,0,0,1,.21,2.22,2.22,0,0,0,1.28-.36,2.38,2.38,0,0,0,.79-.86Z"/><path class="cls-2" d="M117.64,195.62h3.12v11.19h-2.32l-.33-1.26H118a6.61,6.61,0,0,1-.6.52,4.38,4.38,0,0,1-.8.5,4.79,4.79,0,0,1-1,.36,5.07,5.07,0,0,1-1.28.14,3.88,3.88,0,0,1-2.85-1,3.93,3.93,0,0,1-1-3v-7.46h3.13v7.2a1.91,1.91,0,0,0,.48,1.46,1.72,1.72,0,0,0,1.23.44,2.75,2.75,0,0,0,1.44-.35,3.08,3.08,0,0,0,1-.82Z"/><path class="cls-2" d="M130.34,198.29a6.3,6.3,0,0,0-2.67-.65,2.24,2.24,0,0,0-1.17.25.82.82,0,0,0-.41.71.87.87,0,0,0,.37.73,5.25,5.25,0,0,0,1.46.61l.71.21a4.77,4.77,0,0,1,2.2,1.22,2.89,2.89,0,0,1,.76,2.06,3.19,3.19,0,0,1-1.28,2.66,5.61,5.61,0,0,1-3.47,1,8.35,8.35,0,0,1-3.82-.8l.7-2.3a8.08,8.08,0,0,0,1.43.58,5.29,5.29,0,0,0,1.53.22,2.54,2.54,0,0,0,1.37-.29.9.9,0,0,0,.44-.76.86.86,0,0,0-.43-.77,6.64,6.64,0,0,0-1.59-.6l-.73-.21a4.56,4.56,0,0,1-2.07-1.24,3.15,3.15,0,0,1-.65-2.07,3.08,3.08,0,0,1,1.15-2.48,4.81,4.81,0,0,1,3.21-1,8.6,8.6,0,0,1,3.62.73Z"/><path class="cls-2" d="M140.48,197.87h-3V203a1.37,1.37,0,0,0,.36,1.1,1.56,1.56,0,0,0,1,.29,5.36,5.36,0,0,0,1-.09,3,3,0,0,0,.8-.26l.47,2.18a6.6,6.6,0,0,1-1.2.38,7.62,7.62,0,0,1-1.69.18,4.22,4.22,0,0,1-2.91-.81,3.16,3.16,0,0,1-.87-2.43v-5.7h-1.73v-2.25h1.73v-3.45h3.1v3.45h3Z"/><path class="cls-2" d="M142.76,206.81V195.62h2.42l.35,2a4.12,4.12,0,0,1,1.27-1.58,3.42,3.42,0,0,1,2.18-.68,3.5,3.5,0,0,1,1,.12,3.18,3.18,0,0,1,.71.28l-.52,2.47a2.61,2.61,0,0,0-.66-.25,3.68,3.68,0,0,0-.94-.11,2.6,2.6,0,0,0-1.91.77,3.43,3.43,0,0,0-.76,2.5v5.65Z"/><path class="cls-2" d="M153.63,193.22a1.68,1.68,0,0,1-1.25-.45,1.57,1.57,0,0,1-.44-1.14,1.54,1.54,0,0,1,.44-1.14,1.9,1.9,0,0,1,2.48,0,1.55,1.55,0,0,1,.46,1.14,1.58,1.58,0,0,1-.45,1.14A1.67,1.67,0,0,1,153.63,193.22Zm-1.58,13.59V195.62h3.13v11.19Z"/><path class="cls-2" d="M158.58,196.6a9.09,9.09,0,0,1,2.13-.9,8.92,8.92,0,0,1,2.4-.32,6.61,6.61,0,0,1,1.84.24,3.61,3.61,0,0,1,1.43.74,3.14,3.14,0,0,1,.92,1.29,5,5,0,0,1,.32,1.89v7.27H165.2l-.28-1.15h-.1a3.75,3.75,0,0,1-1.37,1,4.7,4.7,0,0,1-1.94.37,4.51,4.51,0,0,1-1.62-.27,3.46,3.46,0,0,1-1.19-.73A2.75,2.75,0,0,1,158,205a3.58,3.58,0,0,1-.25-1.36,3.2,3.2,0,0,1,.41-1.65,3.27,3.27,0,0,1,1.14-1.14,5.29,5.29,0,0,1,1.7-.66,10,10,0,0,1,2.1-.21h1.41v-.68a1.33,1.33,0,0,0-.48-1.14,2.21,2.21,0,0,0-1.35-.36,5,5,0,0,0-1.4.21,8.73,8.73,0,0,0-1.58.68Zm5.91,5.31-1,0a3.55,3.55,0,0,0-2,.48,1.28,1.28,0,0,0-.56,1.05,1.18,1.18,0,0,0,.48,1.09,2.09,2.09,0,0,0,1.09.29,2.18,2.18,0,0,0,1.16-.35,2.41,2.41,0,0,0,.83-.82Z"/><path class="cls-2" d="M182.9,190.05H186v16.76h-2.23l-.33-1.22h-.12a3.7,3.7,0,0,1-1.21,1,4.21,4.21,0,0,1-2,.44,4.82,4.82,0,0,1-2-.4,4.64,4.64,0,0,1-1.6-1.15,5.49,5.49,0,0,1-1.07-1.83,7.48,7.48,0,0,1-.38-2.46,7.65,7.65,0,0,1,.35-2.42,5.2,5.2,0,0,1,1-1.84,4.47,4.47,0,0,1,1.62-1.18,5.6,5.6,0,0,1,2.2-.41,4.75,4.75,0,0,1,1.52.24,3.24,3.24,0,0,1,1.14.61Zm0,8.5a2.54,2.54,0,0,0-.8-.63,2.33,2.33,0,0,0-1.08-.26,2.94,2.94,0,0,0-1.07.19,2.2,2.2,0,0,0-.89.6,2.82,2.82,0,0,0-.62,1.08,4.83,4.83,0,0,0-.24,1.63,5.59,5.59,0,0,0,.21,1.62,3.28,3.28,0,0,0,.57,1.12,2.1,2.1,0,0,0,.83.66,2.52,2.52,0,0,0,1,.21,2.22,2.22,0,0,0,1.28-.36,2.48,2.48,0,0,0,.79-.86Z"/><path class="cls-2" d="M198.86,202h-7.44v.09a2.25,2.25,0,0,0,.94,2,4.09,4.09,0,0,0,2.41.66,6.37,6.37,0,0,0,1.66-.19,8.24,8.24,0,0,0,1.3-.44l.56,2.18a8,8,0,0,1-1.59.53,10.12,10.12,0,0,1-2.28.22,8,8,0,0,1-2.38-.34,5.39,5.39,0,0,1-1.95-1,5,5,0,0,1-1.33-1.79,6.32,6.32,0,0,1-.49-2.58,7,7,0,0,1,.4-2.43,5.3,5.3,0,0,1,1.14-1.86,5.12,5.12,0,0,1,1.77-1.21,5.89,5.89,0,0,1,2.3-.44,4.81,4.81,0,0,1,3.63,1.39,5.3,5.3,0,0,1,1.35,3.87Zm-3.19-2.14a3.58,3.58,0,0,0-.11-.87,2,2,0,0,0-.34-.74,1.68,1.68,0,0,0-.59-.5,1.75,1.75,0,0,0-.87-.19,2.08,2.08,0,0,0-1.55.63,2.91,2.91,0,0,0-.72,1.72Z"/><path class="cls-2" d="M210.85,192h3.33l5.47,14.78h-3.4l-1.15-3.4h-5.26l-1.15,3.4h-3.35Zm-.28,9h3.76l-.69-2c-.21-.61-.42-1.23-.61-1.84l-.54-1.87h0c-.17.59-.36,1.2-.57,1.82s-.41,1.25-.63,1.89Z"/><path class="cls-2" d="M221.41,206.81V190.05h3.08v16.76Z"/><path class="cls-2" d="M229.23,193.22a1.66,1.66,0,0,1-1.24-.45,1.58,1.58,0,0,1-.45-1.14,1.54,1.54,0,0,1,.45-1.14,1.89,1.89,0,0,1,2.47,0,1.51,1.51,0,0,1,.46,1.14,1.58,1.58,0,0,1-.45,1.14A1.66,1.66,0,0,1,229.23,193.22Zm-1.57,13.59V195.62h3.12v11.19Z"/><path class="cls-2" d="M237,206.81h-3.12V195.62h2.44l.37,1.43a6.13,6.13,0,0,1,1.65-1.22,4.41,4.41,0,0,1,2-.45,3.31,3.31,0,0,1,3.26,1.74,5.56,5.56,0,0,1,1.71-1.28,4.82,4.82,0,0,1,2.07-.46,3.63,3.63,0,0,1,2.73,1,3.78,3.78,0,0,1,1,2.79v7.67H248v-7.32a1.9,1.9,0,0,0-.39-1.26,1.39,1.39,0,0,0-1.13-.45,3,3,0,0,0-1.28.3A3.26,3.26,0,0,0,244,199v7.86h-3.12v-7.32a1.9,1.9,0,0,0-.39-1.26,1.43,1.43,0,0,0-1.14-.45,2.7,2.7,0,0,0-1.28.34A3.38,3.38,0,0,0,237,199Z"/><path class="cls-2" d="M263.9,202h-7.44v.09a2.25,2.25,0,0,0,.94,2,4.09,4.09,0,0,0,2.41.66,6.37,6.37,0,0,0,1.66-.19,8.24,8.24,0,0,0,1.3-.44l.57,2.18a8.31,8.31,0,0,1-1.6.53,10.12,10.12,0,0,1-2.28.22,8,8,0,0,1-2.38-.34,5.39,5.39,0,0,1-1.95-1,5,5,0,0,1-1.32-1.79,6.15,6.15,0,0,1-.5-2.58,7.2,7.2,0,0,1,.4-2.43,5.3,5.3,0,0,1,1.14-1.86,5.12,5.12,0,0,1,1.77-1.21,5.89,5.89,0,0,1,2.3-.44,4.81,4.81,0,0,1,3.63,1.39,5.3,5.3,0,0,1,1.35,3.87Zm-3.19-2.14a3.58,3.58,0,0,0-.11-.87,2,2,0,0,0-.34-.74,1.68,1.68,0,0,0-.59-.5,1.74,1.74,0,0,0-.86-.19,2,2,0,0,0-1.55.63,2.86,2.86,0,0,0-.73,1.72Z"/><path class="cls-2" d="M269.23,206.81h-3.12V195.62h2.44l.37,1.43a6,6,0,0,1,1.7-1.23,4.82,4.82,0,0,1,2.06-.44,3.82,3.82,0,0,1,2.84,1,4,4,0,0,1,1,2.94v7.48h-3.12v-7.16a2.1,2.1,0,0,0-.42-1.37,1.55,1.55,0,0,0-1.24-.5,2.76,2.76,0,0,0-1.28.34,4.09,4.09,0,0,0-1.21.92Z"/><path class="cls-2" d="M285.92,197.87h-3V203a1.37,1.37,0,0,0,.36,1.1,1.53,1.53,0,0,0,1,.29,5.39,5.39,0,0,0,1-.09,3,3,0,0,0,.79-.26l.47,2.18a6.2,6.2,0,0,1-1.19.38,7.75,7.75,0,0,1-1.69.18,4.2,4.2,0,0,1-2.91-.81,3.16,3.16,0,0,1-.87-2.43v-5.7H278.1v-2.25h1.74v-3.45h3.1v3.45h3Z"/><path class="cls-2" d="M299.08,201.13a6.5,6.5,0,0,1-.44,2.49,5.25,5.25,0,0,1-3.08,3,6.27,6.27,0,0,1-2.27.41,6.67,6.67,0,0,1-2.27-.37,5.09,5.09,0,0,1-1.81-1.11A5.15,5.15,0,0,1,288,203.8a6.38,6.38,0,0,1-.44-2.43,6.75,6.75,0,0,1,.45-2.55,5.48,5.48,0,0,1,1.23-1.88,5.58,5.58,0,0,1,1.84-1.16,6.58,6.58,0,0,1,2.28-.4,6.72,6.72,0,0,1,2.27.38,5.14,5.14,0,0,1,1.8,1.09,5,5,0,0,1,1.2,1.8A6.58,6.58,0,0,1,299.08,201.13Zm-3.21.12a5.59,5.59,0,0,0-.21-1.64,3.13,3.13,0,0,0-.57-1.11,2.15,2.15,0,0,0-.82-.62,2.46,2.46,0,0,0-1-.2,2.5,2.5,0,0,0-.94.18,2,2,0,0,0-.8.59,3,3,0,0,0-.56,1.09,5.86,5.86,0,0,0-.21,1.71,5.37,5.37,0,0,0,.21,1.59,3,3,0,0,0,.58,1.09,2.35,2.35,0,0,0,.82.63,2.23,2.23,0,0,0,.95.21,2.7,2.7,0,0,0,.94-.17,2,2,0,0,0,.79-.6,3.12,3.12,0,0,0,.57-1.09A5.64,5.64,0,0,0,295.87,201.25Z"/><path class="cls-2" d="M308.07,198.29a6.3,6.3,0,0,0-2.67-.65,2.2,2.2,0,0,0-1.16.25.8.8,0,0,0-.41.71.89.89,0,0,0,.36.73,5.21,5.21,0,0,0,1.47.61l.7.21a4.81,4.81,0,0,1,2.21,1.22,2.89,2.89,0,0,1,.75,2.06,3.19,3.19,0,0,1-1.28,2.66,5.58,5.58,0,0,1-3.46,1,8.36,8.36,0,0,1-3.83-.8l.71-2.3a7.79,7.79,0,0,0,1.43.58,5.27,5.27,0,0,0,1.52.22,2.58,2.58,0,0,0,1.38-.29.89.89,0,0,0,.43-.76.87.87,0,0,0-.42-.77,6.76,6.76,0,0,0-1.6-.6l-.73-.21a4.53,4.53,0,0,1-2.06-1.24,3.38,3.38,0,0,1,.49-4.55,4.84,4.84,0,0,1,3.22-1,8.59,8.59,0,0,1,3.61.73Z"/><path class="cls-2" d="M40.73,78.7H13.67V17.64H59.15c20.14,0,33.15,7.9,33.15,20.12,0,12.92-12.35,20.64-33,20.64H40.73ZM14.91,77.46H39.5V57.17H59.25c19.92,0,31.82-7.26,31.82-19.41,0-11.47-12.53-18.88-31.92-18.88H14.91Zm40.2-32.21H39.5V30.73H55.11c9.65,0,11.67,3.91,11.67,7.19S64.76,45.25,55.11,45.25ZM40.73,44H55.11C62,44,65.55,42,65.55,37.92c0-4.92-5.68-6-10.44-6H40.73Z"/><path class="cls-2" d="M195.93,78.7H166.66l-5.41-11.16h-31l-5,11.16H97.8l30.79-61.06h34.53Zm-28.49-1.24h26.43L162.39,18.88h-33L99.8,77.46h24.6l5-11.15H162ZM156.59,53.7H134.53l.4-.88c4-8.64,7.65-17.27,9.49-22.52l.14-.41h1.25l.16.38c2.31,5.77,5.55,12.93,10.2,22.54Zm-20.13-1.24h18.17c-4.18-8.66-7.19-15.3-9.41-20.74C143.35,36.87,140.08,44.62,136.46,52.46Z"/><path class="cls-2" d="M253.68,80.06c-27.34,0-45-12.53-45-31.92,0-8.71,4.05-16.61,11.41-22.25,8.19-6.29,20.19-9.61,34.7-9.61,28.21,0,40.44,11.32,42.46,21.92l.14.74H270.06l-.15-.42c-1.76-5.18-6.89-7.8-15.24-7.8-11.08,0-17.44,6.19-17.44,17,0,5.33,1.7,17.71,17.51,17.71,10.38,0,13.51-3.79,15.35-7.9l.17-.36h27L297,58C292.93,72.21,277.53,80.06,253.68,80.06Zm1.1-62.55c-33.12,0-44.88,16.5-44.88,30.63,0,18.64,17.19,30.69,43.78,30.69,22.8,0,37.64-7.25,41.93-20.43H271.05c-2.74,5.79-7.65,8.27-16.31,8.27-16.92,0-18.75-13.25-18.75-19,0-11.59,6.81-18.24,18.68-18.24,8.59,0,14.2,2.84,16.26,8.22h24.94C293.51,27.8,281.58,17.51,254.78,17.51Z"/><path class="cls-2" d="M311,122.35H1V3.79H311ZM2.24,121.12H309.76V5H2.24Z"/><path class="cls-2" d="M28.29,104.08H19.13v5.21H29.24l-.49,3.63H15.1V92.42H28.7v3.63H19.13v4.4h9.16Z"/><path class="cls-2" d="M32.78,112.92V92.42h5.14c2.39,4.61,6.82,12.91,7.7,15.14h.05c-.21-2.14-.21-5.7-.21-9.06V92.42h3.76v20.5H44.34c-2.06-4-7-13.54-7.91-15.91h0c.14,1.8.18,6,.18,9.68v6.23Z"/><path class="cls-2" d="M59,112.92,52.2,92.42h4.45l2.85,9.47c.87,2.87,1.53,5.3,2,7.39h.06c.39-1.91,1.14-4.41,2-7.32l3-9.54H70.8l-6.95,20.5Z"/><path class="cls-2" d="M75.37,108.19l-1.49,4.73H69.8l6.51-20.5h5.21l6.79,20.5H84l-1.57-4.73Zm6.11-3.64c-1.36-4.32-2.22-7.09-2.69-8.93h0c-.47,2-1.43,5.24-2.52,8.93Z"/><path class="cls-2" d="M94.46,106.92c.44,2,1.82,3,4,3s3.16-.94,3.16-2.44c0-1.67-.93-2.39-4.21-3.21-5.21-1.31-6.5-3.34-6.5-6.11,0-3.57,2.5-6,7-6,5.09,0,7.12,2.93,7.4,5.93H101.2c-.2-1.26-.85-2.63-3.32-2.63-1.69,0-2.7.74-2.7,2.2s.81,2,3.91,2.77c5.58,1.4,6.8,3.62,6.8,6.51,0,3.75-2.65,6.31-7.72,6.31-4.86,0-7.42-2.56-7.88-6.29Z"/><path class="cls-2" d="M122.72,104.08h-9.17v5.21h10.11l-.49,3.63H109.53V92.42h13.59v3.63h-9.57v4.4h9.17Z"/><path class="cls-2" d="M130.35,106.92c.43,2,1.81,3,4,3s3.16-.94,3.16-2.44c0-1.67-.92-2.39-4.2-3.21-5.22-1.31-6.51-3.34-6.51-6.11,0-3.57,2.5-6,7-6,5.09,0,7.12,2.93,7.39,5.93h-4.18c-.2-1.26-.85-2.63-3.32-2.63-1.68,0-2.7.74-2.7,2.2s.82,2,3.91,2.77c5.58,1.4,6.8,3.62,6.8,6.51,0,3.75-2.65,6.31-7.71,6.31-4.87,0-7.43-2.56-7.89-6.29Z"/><path class="cls-2" d="M156.91,96.05h-5.82V92.42h15.77v3.63h-5.8v16.87h-4.15Z"/><path class="cls-2" d="M183.2,104.08H174v5.21h10.11l-.49,3.63H170V92.42H183.6v3.63H174v4.4h9.17Zm.13-17.58-4.91,4.13h-3.73l3.81-4.13Z"/><path class="cls-2" d="M204.26,106.6c-.77,3.83-3.46,6.61-8.26,6.61-6.08,0-8.95-4.6-8.95-10.43,0-5.62,3-10.66,9.15-10.66,5.1,0,7.57,3.21,8,6.64H200.1a3.82,3.82,0,0,0-4-3.16c-3.41,0-4.73,3.29-4.73,7,0,3.47,1.14,7.12,4.85,7.12a3.89,3.89,0,0,0,3.92-3.14Z"/><path class="cls-2" d="M208,112.92V92.42h5.13c2.4,4.61,6.82,12.91,7.7,15.14h0c-.21-2.14-.21-5.7-.21-9.06V92.42h3.76v20.5H219.6c-2.06-4-7-13.54-7.92-15.91h-.05c.14,1.8.19,6,.19,9.68v6.23Z"/><path class="cls-2" d="M233.78,92.42v20.5h-4.15V92.42Z"/><path class="cls-2" d="M255.19,106.6c-.78,3.83-3.47,6.61-8.27,6.61-6.08,0-8.95-4.6-8.95-10.43,0-5.62,3-10.66,9.15-10.66,5.1,0,7.58,3.21,8,6.64H251a3.82,3.82,0,0,0-4-3.16c-3.42,0-4.74,3.29-4.74,7,0,3.47,1.14,7.12,4.85,7.12A3.88,3.88,0,0,0,251,106.6Z"/><path class="cls-2" d="M276.88,102.6c0,5.71-3.2,10.62-9.43,10.62-6,0-9.16-4.67-9.16-10.55s3.47-10.55,9.43-10.55C273.33,92.12,276.88,96.33,276.88,102.6Zm-14.31,0c0,4,1.64,7,5,7,3.68,0,5-3.3,5-7,0-3.88-1.49-6.93-5.06-6.93S262.57,98.59,262.57,102.58Z"/><path class="cls-2" d="M283.89,106.92c.44,2,1.82,3,4,3s3.16-.94,3.16-2.44c0-1.67-.92-2.39-4.2-3.21-5.21-1.31-6.5-3.34-6.5-6.11,0-3.57,2.49-6,7-6,5.09,0,7.12,2.93,7.39,5.93h-4.17c-.2-1.26-.86-2.63-3.33-2.63-1.68,0-2.69.74-2.69,2.2s.81,2,3.91,2.77c5.57,1.4,6.79,3.62,6.79,6.51,0,3.75-2.64,6.31-7.71,6.31-4.87,0-7.43-2.56-7.89-6.29Z"/></g></svg>