<svg width="230" height="42" xmlns="http://www.w3.org/2000/svg">
 <defs>
  <style>.cls-1{fill:#009245;}.cls-2{fill:#06c;}.cls-3{fill:#fff;}</style>
 </defs>
 <title>bolsapac</title>
 <g>
  <title>background</title>
  <rect fill="none" id="canvas_background" height="44" width="232" y="-1" x="-1"/>
 </g>
 <g>
  <title>Layer 1</title>
  <g stroke="null" id="dibujo">
   <path stroke="null" id="svg_1" d="m58.66258,17.77879l-9.53135,0l0.69251,-1.28465c1.23663,-2.27938 2.34342,-4.54813 2.903,-5.9232l0.24424,-0.60376l1.57671,0l0.26588,0.56652c0.70488,1.5187 1.70037,3.40711 3.12868,5.94714l0.72034,1.29795z" class="cls-1"/>
  </g>
  <g stroke="null" id="Capa_3">
   <path stroke="null" id="svg_2" d="m5.8568,6.34814l16.39398,0c7.00563,0 11.88801,2.42252 11.88801,6.59765c0,4.3037 -4.60099,6.76682 -11.85147,6.76682l-6.99101,0l0,6.86832l-9.43951,0l0,-20.2328zm9.43951,8.92544l5.48172,0c2.55813,0 4.01992,-0.72405 4.01992,-2.27365c0,-1.29246 -1.12192,-2.2229 -4.01992,-2.2229l-5.48172,0l0,4.49655z" class="cls-2"/>
   <path stroke="null" id="svg_3" d="m16.53518,27.73468l-11.9209,0l0,-22.5369l17.63651,0c7.97772,0 13.13054,3.04507 13.13054,7.74801c0,4.88565 -5.0176,7.92395 -13.09399,7.92395l-5.75215,0l0,6.86494zm-9.43586,-2.29734l6.94351,0l0,-6.86494l8.2445,0c6.64384,0 10.59798,-2.10448 10.59798,-5.62661c0,-3.30898 -4.18072,-5.45068 -10.64915,-5.45068l-15.13684,0l0,17.94223zm13.67505,-9.02694l-6.72058,0l0,-6.76682l6.72058,0c4.75082,0 5.28072,2.36839 5.28072,3.38341s-0.51528,3.38341 -5.28072,3.38341zm-4.23919,-2.29734l4.23919,0c1.85647,0 2.79933,-0.37894 2.79933,-1.12329c0,-0.88645 -1.52392,-1.07254 -2.79933,-1.07254l-4.23919,0l0,2.19583z" class="cls-3"/>
   <path stroke="null" id="svg_4" d="m48.08428,22.81182l-1.82724,3.77589l-9.50164,0l11.0219,-20.23957l12.34848,0l11.73453,20.23957l-10.17772,0l-1.98073,-3.77589l-11.61758,0zm9.41759,-4.68264c-1.90033,-3.64393 -3.00033,-5.94465 -3.73488,-7.63974l-0.14252,0c-0.63222,1.69171 -1.92225,4.5473 -3.47541,7.63974l7.35281,0z" class="cls-2"/>
   <path stroke="null" id="svg_5" d="m73.93605,27.73468l-13.03187,0l-1.97707,-3.7725l-10.05347,0l-1.82724,3.7725l-12.3229,0l12.27904,-22.5369l13.85412,0l13.07937,22.5369zm-11.47506,-2.29734l7.30895,0l-10.41526,-17.93208l-10.82456,0l-9.77207,17.93208l6.68404,0l1.82724,-3.7725l13.19632,0l1.99534,3.7725zm-2.98936,-6.15781l-11.26675,0l0.8186,-1.63419c1.46179,-2.89958 2.77009,-5.78563 3.43155,-7.53486l0.2887,-0.76803l1.86378,0l0.31429,0.72067c0.83322,1.93193 2.00996,4.33415 3.69833,7.56531l0.85149,1.6511zm-7.49899,-2.03005l3.65448,0c-0.7309,-1.69171 -1.03787,-2.56463 -1.82724,-4.39843c-0.47508,1.09961 -1.08903,2.7135 -1.81993,4.4052l-0.00731,-0.00677z" class="cls-3"/>
   <path stroke="null" id="svg_6" d="m108.96787,19.72276c-1.32658,4.2631 -6.25646,7.32509 -15.62654,7.32509c-10.79898,0 -16.22222,-4.79091 -16.22222,-10.59008c0,-5.53864 5.33919,-10.57316 16.62422,-10.57316c9.86709,0 14.53751,3.58303 15.29764,7.25065l-9.5528,0c-0.41296,-1.11991 -1.61893,-2.78116 -5.78504,-2.78116c-4.42192,0 -6.59999,2.40899 -6.59999,5.96157c0,3.22439 1.72491,6.20179 6.62557,6.20179c3.53388,0 4.98471,-1.07592 5.81793,-2.7947l9.42124,0z" class="cls-2"/>
   <path stroke="null" id="svg_7" d="m93.34133,28.19821c-5.35746,0 -9.82689,-1.16051 -12.91858,-3.35973a11.23021,10.39722 0 0 1 -4.54617,-8.38071c0,-3.24469 1.62259,-6.18488 4.56444,-8.27582c3.17574,-2.25335 7.77307,-3.44431 13.3023,-3.44431c10.93054,0 15.71425,4.22588 16.51458,8.18109l0.28505,1.35336l-11.94283,0l-0.2887,-0.78157c-0.48605,-1.3263 -2.0392,-1.9996 -4.6083,-1.9996c-4.42923,0.01353 -5.36112,2.62891 -5.36112,4.82474c0,2.3041 0.93189,5.05482 5.38304,5.05482c3.37674,0 4.1661,-1.04886 4.68504,-2.11802l0.3289,-0.67668l11.89532,0l-0.45681,1.4684c-0.96478,3.04169 -4.41095,8.15402 -16.83618,8.15402zm0.40199,-21.16324c-11.35446,0 -15.38535,5.07512 -15.38535,9.4228c0,5.7518 5.88371,9.4431 14.98336,9.4431c7.01294,0 11.81858,-1.77291 13.77738,-5.03113l-6.81925,0c-1.2279,1.92854 -3.28903,2.79808 -6.57806,2.79808c-4.92624,0 -7.86809,-2.74733 -7.86809,-7.35215c0,-4.39843 3.00763,-7.10516 7.84251,-7.10516c3.93587,0 5.75946,1.37705 6.57806,2.78116l7.00929,0a8.0033,7.40967 0 0 0 -3.11727,-2.85898c-2.50332,-1.37366 -6.11394,-2.09771 -10.42257,-2.09771z" class="cls-3"/>
   <path stroke="null" id="svg_8" d="m118.2474,12.19973a4.15879,3.85032 0 0 1 1.26445,0.16917a2.67508,2.47666 0 0 1 0.98305,0.50074a2.45581,2.27365 0 0 1 0.62492,0.81879a3.28903,3.04507 0 0 1 0.22292,1.15713a3.32557,3.0789 0 0 1 -0.26678,1.29923a2.74451,2.54094 0 0 1 -0.7309,0.89999a2.92358,2.70673 0 0 1 -1.05249,0.52443a4.56079,4.2225 0 0 1 -1.29734,0.16579l-1.82724,0l0,-5.53526l2.0794,0zm-0.78206,4.60144l0.43854,0a3.06976,2.84207 0 0 0 0.7784,-0.09135a1.63721,1.51577 0 0 0 0.66146,-0.31804a1.67375,1.5496 0 0 0 0.45316,-0.59886a2.57641,2.3853 0 0 0 0.17176,-0.94736a1.80531,1.67141 0 0 0 -0.51163,-1.27893a1.94053,1.79659 0 0 0 -1.38139,-0.44661l-0.6103,0l0,3.68115z" class="cls-2"/>
   <path stroke="null" id="svg_9" d="m126.33475,15.9384l-3.02225,0l0,0.03722a0.91362,0.84585 0 0 0 0.36545,0.74773a1.65913,1.53607 0 0 0 0.9794,0.24699a2.66046,2.46312 0 0 0 0.67242,-0.07105a3.54484,3.28191 0 0 0 0.54086,-0.16579l0.23023,0.81879a3.19401,2.9571 0 0 1 -0.64684,0.19624a4.05647,3.75559 0 0 1 -0.92458,0.08459a3.28903,3.04507 0 0 1 -0.96478,-0.12857a2.11229,1.95561 0 0 1 -0.78937,-0.39248a2.01362,1.86426 0 0 1 -0.53721,-0.67668a2.48504,2.30072 0 0 1 -0.201,-0.97104a2.87242,2.65936 0 0 1 0.1608,-0.91014a2.19269,2.03005 0 0 1 0.46046,-0.70037a2.15249,1.99283 0 0 1 0.7309,-0.45338a2.37906,2.2026 0 0 1 0.93189,-0.1624a1.9588,1.81351 0 0 1 1.46179,0.51766a2.1598,1.9996 0 0 1 0.54817,1.45487l0.00365,0.52781zm-1.29368,-0.80187a1.39966,1.29585 0 0 0 -0.04385,-0.33834a0.89535,0.82894 0 0 0 -0.13522,-0.27744a0.76744,0.71052 0 0 0 -0.2412,-0.18947a0.7309,0.67668 0 0 0 -0.36545,-0.07105a0.83688,0.7748 0 0 0 -0.62857,0.24022a1.12192,1.03871 0 0 0 -0.29236,0.64285l1.70664,-0.00677z" class="cls-2"/>
   <path stroke="null" id="svg_10" d="m129.97096,14.53766a2.55813,2.36839 0 0 0 -1.09634,-0.24699a0.88438,0.81879 0 0 0 -0.47143,0.09812a0.32525,0.30112 0 0 0 -0.16811,0.26391a0.36545,0.33834 0 0 0 0.14983,0.27406a2.09402,1.93869 0 0 0 0.59203,0.23007l0.2887,0.07782a1.92591,1.78306 0 0 1 0.89169,0.45676a1.17309,1.08608 0 0 1 0.30698,0.77818a1.29368,1.19773 0 0 1 -0.51894,0.99472a2.2475,2.0808 0 0 1 -1.40332,0.36879a3.44252,3.18717 0 0 1 -1.55315,-0.29774l0.28505,-0.86615a3.32923,3.08229 0 0 0 0.58106,0.21654a2.10863,1.95223 0 0 0 0.61761,0.08459a1.00864,0.93382 0 0 0 0.55913,-0.11165a0.36545,0.33834 0 0 0 0,-0.5718a2.63488,2.43944 0 0 0 -0.64684,-0.22331l-0.29601,-0.0812a1.798,1.66464 0 0 1 -0.83688,-0.46691a1.37408,1.27216 0 0 1 0.201,-1.70862a1.97707,1.83043 0 0 1 1.30465,-0.35864a3.42425,3.17026 0 0 1 1.46179,0.27067l-0.2485,0.81879z" class="cls-2"/>
   <path stroke="null" id="svg_11" d="m131.44371,13.89143a3.7568,3.47815 0 0 1 0.86611,-0.33834a3.49003,3.23116 0 0 1 0.97209,-0.11842a2.66777,2.46989 0 0 1 0.7309,0.08797a1.49103,1.38043 0 0 1 0.58106,0.27744a1.29368,1.19773 0 0 1 0.36545,0.48383a2.00265,1.85411 0 0 1 0.12791,0.70713l0,2.73041l-0.96113,0l-0.11329,-0.42969l-0.03654,0a1.49834,1.3872 0 0 1 -0.55913,0.38571a1.86744,1.72892 0 0 1 -0.78206,0.1421a1.82724,1.69171 0 0 1 -0.65781,-0.1015a1.5093,1.39735 0 0 1 -0.48605,-0.27406a1.15847,1.07254 0 0 1 -0.29967,-0.40939a1.52392,1.41088 0 0 1 -0.09867,-0.5109a1.29734,1.20111 0 0 1 0.16445,-0.61916a1.36677,1.2654 0 0 1 0.46046,-0.41278a2.10863,1.95223 0 0 1 0.68704,-0.24699a3.92856,3.63717 0 0 1 0.85149,-0.0812l0.57375,0l0,-0.25714a0.54086,0.50074 0 0 0 -0.19734,-0.42969a0.90266,0.8357 0 0 0 -0.54452,-0.13534a1.92225,1.77967 0 0 0 -0.56644,0.0812a3.15747,2.92327 0 0 0 -0.64319,0.25376l-0.43488,-0.78495zm2.39734,1.98945l-0.4093,0a1.43986,1.33306 0 0 0 -0.80764,0.17932a0.52259,0.48383 0 0 0 -0.23023,0.39248a0.47143,0.43646 0 0 0 0.19734,0.40939a0.8186,0.75788 0 0 0 0.44219,0.11165a0.86611,0.80187 0 0 0 0.47143,-0.13195a1.09634,1.01502 0 0 0 0.33621,-0.30789l0,-0.653z" class="cls-2"/>
   <path stroke="null" id="svg_12" d="m136.18357,17.73499l0,-4.1819l0.9794,0l0.14252,0.7545a1.68106,1.55637 0 0 1 0.51163,-0.58871a1.58239,1.46502 0 0 1 1.27541,-0.20977a1.05249,0.97442 0 0 1 0.28505,0.10489l-0.20831,0.92367a1.29003,1.19434 0 0 0 -0.26678,-0.09135a1.46179,1.35336 0 0 0 -0.36545,-0.0406a1.04153,0.96427 0 0 0 -0.77475,0.28759a1.38139,1.27893 0 0 0 -0.31063,0.9372l0,2.1214l-1.2681,-0.01692z" class="cls-2"/>
   <path stroke="null" id="svg_13" d="m139.89286,17.73499l0,-4.1819l0.9794,0l0.14252,0.7545a1.72491,1.59697 0 0 1 0.51528,-0.58871a1.39601,1.29246 0 0 1 0.88438,-0.25376a1.43256,1.3263 0 0 1 0.39103,0.04398a1.15847,1.07254 0 0 1 0.28505,0.10489l-0.21196,0.92367a1.33388,1.23495 0 0 0 -0.26312,-0.09135a1.49834,1.3872 0 0 0 -0.36545,-0.0406a1.04518,0.96766 0 0 0 -0.77475,0.28759a1.39601,1.29246 0 0 0 -0.30698,0.9372l0,2.1214l-1.27541,-0.01692z" class="cls-2"/>
   <path stroke="null" id="svg_14" d="m147.7975,15.60344a2.65315,2.45636 0 0 1 -0.17907,0.93382a2.15614,1.99621 0 0 1 -0.50066,0.70037a2.21461,2.05035 0 0 1 -0.7309,0.44323a2.55813,2.36839 0 0 1 -0.92458,0.15225a2.67142,2.47327 0 0 1 -0.91727,-0.1421a1.99169,1.84396 0 0 1 -0.76744,-0.41616a2.03554,1.88456 0 0 1 -0.48605,-0.67668a2.6093,2.41576 0 0 1 -0.17541,-0.91352a2.75913,2.55448 0 0 1 0.17907,-0.95412a2.17076,2.00975 0 0 1 0.50066,-0.70375a2.09036,1.93531 0 0 1 0.7309,-0.43646a2.55813,2.36839 0 0 1 0.92458,-0.14887a2.66777,2.46989 0 0 1 0.91727,0.13872a2.08305,1.92854 0 0 1 0.7309,0.40939a2.00265,1.85411 0 0 1 0.48605,0.67668a2.70066,2.50034 0 0 1 0.21196,0.9372zm-1.30099,0.04398a2.22192,2.05711 0 0 0 -0.08771,-0.61578a1.24618,1.15374 0 0 0 -0.22658,-0.41278a0.91362,0.84585 0 0 0 -0.33256,-0.23346a0.98671,0.91352 0 0 0 -0.39103,-0.07444a1.01594,0.94059 0 0 0 -0.36545,0.06428a0.84053,0.77818 0 0 0 -0.32525,0.21992a1.2279,1.13683 0 0 0 -0.22658,0.40939a2.34617,2.17215 0 0 0 -0.08771,0.64285a2.09036,1.93531 0 0 0 0.05482,0.6124a1.23156,1.14021 0 0 0 0.23023,0.40939a0.96844,0.8966 0 0 0 0.33621,0.23684a0.88073,0.8154 0 0 0 0.36545,0.0812a1.03422,0.95751 0 0 0 0.36545,-0.06767a0.81495,0.7545 0 0 0 0.32525,-0.22331a1.25714,1.16389 0 0 0 0.22658,-0.40939a2.22192,2.05711 0 0 0 0.1206,-0.63946l0.01827,0z" class="cls-2"/>
   <path stroke="null" id="svg_15" d="m148.72208,17.73499l0,-6.28638l1.24618,0l0,6.28638l-1.24618,0z" class="cls-2"/>
   <path stroke="null" id="svg_16" d="m151.1852,17.73499l0,-6.28638l1.24618,0l0,6.28638l-1.24618,0z" class="cls-2"/>
   <path stroke="null" id="svg_17" d="m158.03003,15.60344a2.65315,2.45636 0 0 1 -0.17907,0.93382a2.15614,1.99621 0 0 1 -0.50066,0.70037a2.21461,2.05035 0 0 1 -0.7309,0.44323a2.57641,2.3853 0 0 1 -0.92458,0.15225a2.67142,2.47327 0 0 1 -0.91727,-0.1421a2.03554,1.88456 0 0 1 -0.7309,-0.41278a2.07574,1.92178 0 0 1 -0.48239,-0.67668a2.55813,2.36839 0 0 1 -0.17907,-0.91352a2.75548,2.55109 0 0 1 0.18272,-0.95412a2.12325,1.96576 0 0 1 0.50066,-0.70375a2.09036,1.93531 0 0 1 0.7309,-0.43646a2.55813,2.36839 0 0 1 0.92093,-0.14887a2.6897,2.49019 0 0 1 0.92093,0.13872a2.08305,1.92854 0 0 1 0.7309,0.40939a2.00265,1.85411 0 0 1 0.48605,0.67668a2.70066,2.50034 0 0 1 0.17176,0.93382zm-1.30465,0.04398a2.23289,2.06726 0 0 0 -0.08405,-0.61578a1.3083,1.21126 0 0 0 -0.22658,-0.41278a0.92824,0.85939 0 0 0 -0.33621,-0.23346a0.95747,0.88645 0 0 0 -0.38737,-0.07444a1.00498,0.93044 0 0 0 -0.36545,0.06428a0.84053,0.77818 0 0 0 -0.32525,0.21992a1.2279,1.13683 0 0 0 -0.22658,0.40939a2.34617,2.17215 0 0 0 -0.08771,0.64285a2.09036,1.93531 0 0 0 0.05482,0.6124a1.17674,1.08946 0 0 0 0.23023,0.40939a0.99402,0.92029 0 0 0 0.33256,0.23684a0.89535,0.82894 0 0 0 0.38737,0.0812a1.03422,0.95751 0 0 0 0.36545,-0.06767a0.84053,0.77818 0 0 0 0.32525,-0.22331a1.32292,1.22479 0 0 0 0.22658,-0.40939a2.23289,2.06726 0 0 0 0.11329,-0.63946l0.00365,0z" class="cls-2"/>
   <path stroke="null" id="svg_18" d="m160.61375,13.55309l1.38139,0l0.80764,1.9996l0.30332,1.01502l0.0402,0l0.29236,-1.01502l0.70531,-1.98945l1.29368,0l-1.66279,4.35107a7.63055,7.06456 0 0 1 -0.32159,0.67668a3.40963,3.15672 0 0 1 -0.42757,0.6124a2.8176,2.60861 0 0 1 -0.59568,0.50074a3.0186,2.7947 0 0 1 -0.80764,0.36203l-0.52259,-0.90675a2.39368,2.21613 0 0 0 0.89535,-0.5109a1.87109,1.73231 0 0 0 0.49335,-0.80187l0.03654,-0.11504l-1.91129,-4.17851z" class="cls-2"/>
   <path stroke="null" id="svg_19" d="m172.14728,12.19973l0,0.93382l-2.50332,0l0,1.47178l2.29136,0l0,0.92367l-2.29136,0l0,2.21952l-1.30465,0l0,-5.54879l3.80797,0z" class="cls-2"/>
   <path stroke="null" id="svg_20" d="m172.77219,13.89143a3.7568,3.47815 0 0 1 0.86611,-0.33834a3.5083,3.24807 0 0 1 0.97209,-0.11842a2.65315,2.45636 0 0 1 0.7309,0.08797a1.46179,1.35336 0 0 1 0.58106,0.27744a1.33754,1.23833 0 0 1 0.36545,0.48383a2.07574,1.92178 0 0 1 0.12791,0.70713l0,2.73041l-0.9794,0l-0.11694,-0.42969l-0.03654,0a1.51661,1.40412 0 0 1 -0.55548,0.38571a1.89667,1.75599 0 0 1 -0.78571,0.1421a1.82724,1.69171 0 0 1 -0.65781,-0.1015a1.5093,1.39735 0 0 1 -0.48605,-0.27406a1.20232,1.11314 0 0 1 -0.29967,-0.40939a1.52392,1.41088 0 0 1 -0.09867,-0.5109a1.26445,1.17066 0 0 1 0.16811,-0.61916a1.32292,1.22479 0 0 1 0.46046,-0.42631a2.1598,1.9996 0 0 1 0.71628,-0.23346a3.90664,3.61687 0 0 1 0.85149,-0.0812l0.5701,0l0,-0.25714a0.54086,0.50074 0 0 0 -0.19734,-0.42969a0.90266,0.8357 0 0 0 -0.54452,-0.13534a1.94418,1.79997 0 0 0 -0.56644,0.0812a3.15747,2.92327 0 0 0 -0.64319,0.25376l-0.44219,-0.78495zm2.39734,1.98945l-0.4093,0a1.46179,1.35336 0 0 0 -0.80764,0.17932a0.52624,0.48721 0 0 0 -0.22658,0.39248a0.47508,0.43984 0 0 0 0.19369,0.40939a0.82957,0.76803 0 0 0 0.44219,0.11165a0.86611,0.80187 0 0 0 0.47143,-0.13195a1.00864,0.93382 0 0 0 0.33621,-0.30789l0,-0.653z" class="cls-2"/>
   <path stroke="null" id="svg_21" d="m182.01071,15.64742a2.78837,2.58154 0 0 1 -0.1608,0.91014a2.19269,2.03005 0 0 1 -0.44585,0.67668a1.94784,1.80336 0 0 1 -0.67608,0.43646a2.22923,2.06388 0 0 1 -0.84784,0.14887a1.89667,1.75599 0 0 1 -0.76013,-0.12857a1.70299,1.57667 0 0 1 -0.55183,-0.35526l-0.0402,0l-0.08405,0.38571l-0.91362,0l0,-6.27284l1.25714,0l0,2.44282a1.75415,1.62404 0 0 1 0.55548,-0.31804a1.90033,1.75937 0 0 1 0.67973,-0.11165a1.82724,1.69171 0 0 1 1.46179,0.57856a2.65315,2.45636 0 0 1 0.52624,1.60712zm-1.30099,0.02707a1.74684,1.61727 0 0 0 -0.27774,-0.99134a0.92093,0.85262 0 0 0 -0.7784,-0.33834a1.01594,0.94059 0 0 0 -0.49701,0.11842a1.3485,1.24848 0 0 0 -0.36545,0.27067l0,1.92854a0.98305,0.91014 0 0 0 0.32159,0.21992a0.9392,0.86954 0 0 0 0.41296,0.08797a1.15116,1.06577 0 0 0 0.44219,-0.0812a1.0598,0.98119 0 0 0 0.36545,-0.23684a1.26445,1.17066 0 0 0 0.26312,-0.39924a1.87475,1.73569 0 0 0 0.11329,-0.57856z" class="cls-2"/>
   <path stroke="null" id="svg_22" d="m182.91702,17.73499l0,-4.1819l0.9794,0l0.14252,0.7545a1.68106,1.55637 0 0 1 0.51163,-0.58871a1.58239,1.46502 0 0 1 1.27541,-0.20977a1.05249,0.97442 0 0 1 0.28505,0.10489l-0.20831,0.92367a1.29003,1.19434 0 0 0 -0.26678,-0.09135a1.46179,1.35336 0 0 0 -0.36545,-0.0406a1.04153,0.96427 0 0 0 -0.77475,0.28759a1.38139,1.27893 0 0 0 -0.31063,0.9372l0,2.1214l-1.2681,-0.01692z" class="cls-2"/>
   <path stroke="null" id="svg_23" d="m187.32067,12.63619a0.66877,0.61916 0 0 1 -0.50432,-0.17255a0.68339,0.6327 0 0 1 0,-0.85262a0.66877,0.61916 0 0 1 0.50432,-0.17255a0.67973,0.62931 0 0 1 0.50066,0.17255a0.62492,0.57856 0 0 1 0.18638,0.42631a0.63588,0.58871 0 0 1 -0.18272,0.42631a0.66877,0.61916 0 0 1 -0.50432,0.17255zm-0.63588,5.0988l0,-4.1819l1.26445,0l0,4.19881l-1.26445,-0.01692z" class="cls-2"/>
   <path stroke="null" id="svg_24" d="m191.58179,16.97034a1.59701,1.47855 0 0 0 0.53721,-0.07444a3.35481,3.10597 0 0 0 0.38737,-0.14549l0.23754,0.80864a2.48504,2.30072 0 0 1 -0.55183,0.18609a3.15747,2.92327 0 0 1 -0.78937,0.08797a2.94551,2.72703 0 0 1 -0.96113,-0.1421a2.09402,1.93869 0 0 1 -1.29368,-1.09961a2.77009,2.56463 0 0 1 0,-1.84058a2.19269,2.03005 0 0 1 0.50432,-0.69698a2.26943,2.1011 0 0 1 0.78206,-0.44999a2.82857,2.61876 0 0 1 0.99767,-0.15564a3.80797,3.52551 0 0 1 0.62492,0.05075a2.37906,2.2026 0 0 1 0.68704,0.23007l-0.26312,0.80864a2.31694,2.14508 0 0 0 -0.43488,-0.16917a1.60432,1.48532 0 0 0 -0.47143,-0.06767a1.29368,1.19773 0 0 0 -0.95382,0.33834a1.41794,1.31276 0 0 0 -0.36545,0.97781a1.74684,1.61727 0 0 0 0.1206,0.63946a1.28638,1.19096 0 0 0 0.30698,0.41616a1.1402,1.05562 0 0 0 0.43123,0.23007a1.5495,1.43457 0 0 0 0.46777,0.06767z" class="cls-2"/>
   <path stroke="null" id="svg_25" d="m193.57348,13.89143a3.65448,3.38341 0 0 1 0.86246,-0.33834a3.5083,3.24807 0 0 1 0.97209,-0.11842a2.63488,2.43944 0 0 1 0.7309,0.08797a1.46179,1.35336 0 0 1 0.58106,0.27744a1.33754,1.23833 0 0 1 0.36545,0.48383a2.07574,1.92178 0 0 1 0.12791,0.70713l0,2.73041l-0.95747,0l-0.11694,-0.42969l-0.03654,0a1.51661,1.40412 0 0 1 -0.55548,0.38571a1.88571,1.74584 0 0 1 -0.78571,0.1421a1.82724,1.69171 0 0 1 -0.65781,-0.1015a1.46179,1.35336 0 0 1 -0.48239,-0.27406a1.11827,1.03532 0 0 1 -0.29967,-0.40939a1.46179,1.35336 0 0 1 -0.10233,-0.5109a1.26445,1.17066 0 0 1 0.16811,-0.61916a1.32292,1.22479 0 0 1 0.46046,-0.42631a2.1598,1.9996 0 0 1 0.6907,-0.24699a3.90664,3.61687 0 0 1 0.85149,-0.0812l0.5701,0l0,-0.24361a0.54817,0.50751 0 0 0 -0.19369,-0.42969a0.92093,0.85262 0 0 0 -0.54817,-0.13534a1.96245,1.81689 0 0 0 -0.56644,0.0812a3.15747,2.92327 0 0 0 -0.64319,0.25376l-0.43488,-0.78495zm2.39734,1.98945l-0.4093,0a1.46179,1.35336 0 0 0 -0.81129,0.17932a0.52624,0.48721 0 0 0 -0.22658,0.39248a0.47508,0.43984 0 0 0 0.19369,0.40939a0.82957,0.76803 0 0 0 0.44219,0.11165a0.86611,0.80187 0 0 0 0.47143,-0.13195a1.05614,0.97781 0 0 0 0.33987,-0.30789l0,-0.653z" class="cls-2"/>
   <path stroke="null" id="svg_26" d="m200.68875,16.97034a1.62624,1.50562 0 0 0 0.53721,-0.07444a3.02591,2.80146 0 0 0 0.38372,-0.14549l0.2412,0.80864a2.55813,2.36839 0 0 1 -0.55183,0.18609a3.16478,2.93003 0 0 1 -0.79302,0.08797a2.96013,2.74056 0 0 1 -0.96113,-0.1421a2.19269,2.03005 0 0 1 -0.77475,-0.41616a2.15614,1.99621 0 0 1 -0.51894,-0.67668a2.58737,2.39546 0 0 1 -0.19003,-0.94397a2.51063,2.3244 0 0 1 0.18272,-0.8966a2.19269,2.03005 0 0 1 0.50432,-0.69698a2.2877,2.11802 0 0 1 0.7784,-0.44999a2.86511,2.65259 0 0 1 1.00133,-0.15564a3.797,3.51536 0 0 1 0.62126,0.05075a2.40099,2.2229 0 0 1 0.6907,0.23007l-0.26678,0.80864a2.28405,2.11463 0 0 0 -0.43123,-0.16917a1.62624,1.50562 0 0 0 -0.47143,-0.06767a1.30465,1.20788 0 0 0 -0.95747,0.33834a1.41428,1.30938 0 0 0 -0.36545,0.97781a1.82724,1.69171 0 0 0 0.11694,0.63946a1.24618,1.15374 0 0 0 0.31063,0.41616a1.15116,1.06577 0 0 0 0.42757,0.23007a1.57143,1.45487 0 0 0 0.48605,0.0609z" class="cls-2"/>
   <path stroke="null" id="svg_27" d="m203.24688,12.63619a0.66877,0.61916 0 0 1 -0.50432,-0.17255a0.67973,0.62931 0 0 1 0,-0.85262a0.77109,0.7139 0 0 1 1.00498,0a0.62492,0.57856 0 0 1 0.18638,0.42631a0.63588,0.58871 0 0 1 -0.18272,0.42631a0.66877,0.61916 0 0 1 -0.50432,0.17255zm-0.63222,5.0988l0,-4.1819l1.26445,0l0,4.19881l-1.26445,-0.01692z" class="cls-2"/>
   <path stroke="null" id="svg_28" d="m209.59471,15.60344a2.65315,2.45636 0 0 1 -0.18272,0.93382a2.14883,1.98945 0 0 1 -0.49701,0.70037a2.26578,2.09771 0 0 1 -0.74917,0.44323a2.55813,2.36839 0 0 1 -0.92093,0.15225a2.6897,2.49019 0 0 1 -0.92093,-0.1421a1.99169,1.84396 0 0 1 -0.7309,-0.41278a2.08305,1.92854 0 0 1 -0.48605,-0.67668a2.6093,2.41576 0 0 1 -0.17541,-0.91352a2.75913,2.55448 0 0 1 0.17907,-0.95412a2.17076,2.00975 0 0 1 0.50066,-0.70375a2.07209,1.91839 0 0 1 0.74917,-0.43646a2.55813,2.36839 0 0 1 0.92093,-0.14887a2.66777,2.46989 0 0 1 0.91727,0.13872a2.13421,1.97591 0 0 1 0.7309,0.40939a2.10132,1.94546 0 0 1 0.48605,0.67668a2.70066,2.50034 0 0 1 0.17907,0.93382zm-1.30465,0.04398a2.35714,2.1823 0 0 0 -0.08405,-0.61578a1.25349,1.16051 0 0 0 -0.23389,-0.41278a0.92458,0.856 0 0 0 -0.7309,-0.30789a1.03056,0.95412 0 0 0 -0.36545,0.06428a0.82957,0.76803 0 0 0 -0.32159,0.21992a1.29003,1.19434 0 0 0 -0.23023,0.40939a2.35714,2.1823 0 0 0 -0.08405,0.64285a2.09767,1.94208 0 0 0 0.08405,0.59548a1.29003,1.19434 0 0 0 0.23023,0.40939a0.89535,0.82894 0 0 0 0.33256,0.23684a0.90631,0.83909 0 0 0 0.38737,0.0812a1.03787,0.96089 0 0 0 0.36545,-0.06767a0.80398,0.74435 0 0 0 0.32159,-0.22331a1.32658,1.22818 0 0 0 0.23023,-0.40939a2.35714,2.1823 0 0 0 0.09867,-0.62255zm-0.7309,-2.73718l-0.92458,0l0.66511,-1.31276l1.26445,0l-1.00498,1.31276z" class="cls-2"/>
   <path stroke="null" id="svg_29" d="m211.80201,17.73499l-1.2681,0l0,-4.1819l0.99036,0l0.15349,0.53458a2.30232,2.13155 0 0 1 0.6907,-0.46014a1.92956,1.78644 0 0 1 0.82957,-0.1624a1.53853,1.42442 0 0 1 1.15116,0.37556a1.64086,1.51915 0 0 1 0.40199,1.10299l0,2.80823l-1.2681,0l0,-2.68643a0.84053,0.77818 0 0 0 -0.16811,-0.51428a0.63222,0.58533 0 0 0 -0.50432,-0.18947a1.15116,1.06577 0 0 0 -0.51894,0.12857a1.65913,1.53607 0 0 0 -0.4897,0.33834l0,2.90635z" class="cls-2"/>
   <path stroke="null" id="svg_30" d="m221.0186,11.44861l1.2681,0l0,6.28638l-0.90631,0l-0.12791,-0.46014l-0.04751,0a1.52026,1.4075 0 0 1 -0.4897,0.38909a1.6774,1.55299 0 0 1 -0.83322,0.16579a2.02093,1.87103 0 0 1 -0.80033,-0.14887a1.92956,1.78644 0 0 1 -0.64684,-0.43308a2.14518,1.98606 0 0 1 -0.43123,-0.67668a2.92358,2.70673 0 0 1 -0.15714,-0.92367a3.15381,2.91988 0 0 1 0.14252,-0.90675a2.14883,1.98945 0 0 1 0.4093,-0.6936a1.73222,1.60374 0 0 1 0.65781,-0.43984a2.26943,2.1011 0 0 1 0.89169,-0.15225a1.89302,1.75261 0 0 1 0.61395,0.08797a1.30099,1.20449 0 0 1 0.46046,0.22669l-0.00365,-2.32102zm0,3.18717a0.98671,0.91352 0 0 0 -0.32159,-0.23684a0.93555,0.86615 0 0 0 -0.43854,-0.09812a1.20232,1.11314 0 0 0 -0.43123,0.07105a0.92824,0.85939 0 0 0 -0.36545,0.22331a1.21329,1.12329 0 0 0 -0.25216,0.40601a1.96245,1.81689 0 0 0 -0.09502,0.6124a2.33887,2.16538 0 0 0 0.08405,0.60901a1.46179,1.35336 0 0 0 0.23023,0.42293a0.82957,0.76803 0 0 0 0.33621,0.24361a0.99767,0.92367 0 0 0 0.41296,0.0812a0.91362,0.84585 0 0 0 0.51894,-0.13534a0.98305,0.91014 0 0 0 0.31794,-0.32142l0.00365,-1.87779z" class="cls-2"/>
   <path stroke="null" id="svg_31" d="m227.49068,15.9384l-3.0186,0l0,0.03722a0.91727,0.84924 0 0 0 0.38372,0.74773a1.65182,1.5293 0 0 0 0.9794,0.24699a2.62757,2.43267 0 0 0 0.66877,-0.07105a3.74584,3.468 0 0 0 0.5299,-0.16579l0.22658,0.81879a3.19401,2.9571 0 0 1 -0.64684,0.19624a4.01992,3.72175 0 0 1 -0.92093,0.08459a3.33654,3.08905 0 0 1 -0.96844,-0.12857a2.1671,2.00636 0 0 1 -0.78937,-0.39248a2.10498,1.94884 0 0 1 -0.53721,-0.67668a2.55813,2.36839 0 0 1 -0.19734,-0.97104a2.78837,2.58154 0 0 1 0.1608,-0.91014a2.08671,1.93193 0 0 1 0.46046,-0.70037a2.11594,1.959 0 0 1 0.7309,-0.45338a2.37906,2.2026 0 0 1 0.93189,-0.1624a1.96245,1.81689 0 0 1 1.46179,0.51766a2.1598,1.9996 0 0 1 0.54817,1.45487l-0.00365,0.52781zm-1.29368,-0.80187a1.39966,1.29585 0 0 0 -0.04385,-0.33834a0.83688,0.7748 0 0 0 -0.13887,-0.27744a0.7309,0.67668 0 0 0 -0.23754,-0.18947a0.7309,0.67668 0 0 0 -0.36545,-0.07105a0.83322,0.77142 0 0 0 -0.62857,0.24022a1.14751,1.06239 0 0 0 -0.29601,0.64285l1.7103,-0.00677z" class="cls-2"/>
   <path stroke="null" id="svg_32" d="m116.17896,21.46689l4.01992,0l0,0.96766l-2.67508,0l0,1.30938l2.43023,0l0,0.97442l-2.43023,0l0,1.53607l2.71528,0l0,0.96766l-4.06012,0l0,-5.75518z" class="cls-2"/>
   <path stroke="null" id="svg_33" d="m122.47928,27.20516l-1.3083,0l0,-4.3443l1.02325,0l0.15714,0.55488a2.4887,2.3041 0 0 1 0.71262,-0.47706a2.02458,1.87441 0 0 1 0.86246,-0.16917a1.58239,1.46502 0 0 1 1.18771,0.39248a1.6774,1.55299 0 0 1 0.41661,1.13683l0,2.90635l-1.3083,0l0,-2.77778a0.88073,0.8154 0 0 0 -0.17907,-0.53458a0.64319,0.59548 0 0 0 -0.51894,-0.19285a1.18405,1.09623 0 0 0 -0.53721,0.13195a1.82724,1.69171 0 0 0 -0.50797,0.35864l0,3.01462z" class="cls-2"/>
   <path stroke="null" id="svg_34" d="m129.63109,22.86086l1.38505,0l-1.66279,4.3443l-1.51295,0l-1.60432,-4.3443l1.3887,0l0.68704,2.16538l0.28505,1.31276l0.0402,0l0.28505,-1.31276l0.70897,-2.16538z" class="cls-2"/>
   <path stroke="null" id="svg_35" d="m131.67395,23.24318a3.95049,3.65747 0 0 1 0.89535,-0.33834a3.73122,3.45446 0 0 1 1.00498,-0.1218a2.83587,2.62553 0 0 1 0.77109,0.09135a1.58604,1.4684 0 0 1 0.59933,0.28759a1.32658,1.22818 0 0 1 0.38372,0.50074a2.12325,1.96576 0 0 1 0.13156,0.73082l0,2.82515l-1.01229,0l-0.11694,-0.47029l-0.05482,0a1.58604,1.4684 0 0 1 -0.57375,0.39924a1.94784,1.80336 0 0 1 -0.81129,0.14549a1.86744,1.72892 0 0 1 -0.67973,-0.10489a1.46179,1.35336 0 0 1 -0.49335,-0.27067a1.22425,1.13344 0 0 1 -0.31063,-0.42293a1.56046,1.44472 0 0 1 -0.10233,-0.52781a1.31561,1.21803 0 0 1 0.17176,-0.64285a1.38505,1.28231 0 0 1 0.47508,-0.44323a2.29867,2.12817 0 0 1 0.7309,-0.25376a4.20996,3.89769 0 0 1 0.88073,-0.0812l0.59203,0l0,-0.26391a0.56279,0.52105 0 0 0 -0.20465,-0.44323a0.90631,0.83909 0 0 0 -0.56279,-0.13872a2.06478,1.91163 0 0 0 -0.58472,0.0812a3.39501,3.14319 0 0 0 -0.66511,0.26391l-0.46412,-0.80187zm2.47774,2.05711l-0.42026,0a1.48737,1.37705 0 0 0 -0.83688,0.18609a0.54086,0.50074 0 0 0 -0.23754,0.40601a0.49701,0.46014 0 0 0 0.201,0.42293a0.90996,0.84247 0 0 0 0.94651,-0.02368a1.04153,0.96427 0 0 0 0.34718,-0.31804l0,-0.6733z" class="cls-2"/>
   <path stroke="null" id="svg_36" d="m139.50184,23.89956a2.62757,2.43267 0 0 0 -1.12192,-0.25714a0.91362,0.84585 0 0 0 -0.48605,0.1015a0.33987,0.31466 0 0 0 -0.17176,0.27406a0.36545,0.33834 0 0 0 0.15349,0.28082a2.06113,1.90824 0 0 0 0.61395,0.23684l0.29601,0.0812a2.05016,1.89809 0 0 1 0.92458,0.47368a1.2206,1.13006 0 0 1 0.31429,0.80187a1.33023,1.23156 0 0 1 -0.53721,1.01502a2.3279,2.15523 0 0 1 -1.46179,0.38233a3.54484,3.28191 0 0 1 -1.60066,-0.30789l0.29236,-0.89322a3.42425,3.17026 0 0 0 0.59933,0.22331a2.25481,2.08756 0 0 0 0.63953,0.08459a1.07076,0.99134 0 0 0 0.57741,-0.11165a0.36545,0.33834 0 0 0 0.18272,-0.29774a0.36545,0.33834 0 0 0 -0.17907,-0.29436a2.67142,2.47327 0 0 0 -0.66877,-0.23346l-0.30332,-0.06428a1.86378,1.72554 0 0 1 -0.86611,-0.48383a1.29003,1.19434 0 0 1 -0.27409,-0.79849a1.3083,1.21126 0 0 1 0.47874,-0.96766a2.05382,1.90148 0 0 1 1.3485,-0.37218a3.54119,3.27853 0 0 1 1.51295,0.28421l-0.26312,0.84247z" class="cls-2"/>
   <path stroke="null" id="svg_37" d="m145.07857,25.34766l-3.12823,0l0,0.03383a0.95382,0.88307 0 0 0 0.39103,0.7748a1.74684,1.61727 0 0 0 1.01594,0.25376a2.78837,2.58154 0 0 0 0.6907,-0.07105a3.43886,3.18379 0 0 0 0.54817,-0.17255l0.23389,0.84585a3.24152,3.00109 0 0 1 -0.66877,0.20639a4.26477,3.94844 0 0 1 -0.95382,0.08459a3.39501,3.14319 0 0 1 -0.99767,-0.13195a2.25116,2.08418 0 0 1 -0.81495,-0.40601a2.05016,1.89809 0 0 1 -0.54086,-0.6936a2.55813,2.36839 0 0 1 -0.20831,-1.01502a2.92358,2.70673 0 0 1 0.16811,-0.94397a2.21096,2.04696 0 0 1 0.47874,-0.72405a2.15614,1.99621 0 0 1 0.7309,-0.46691a2.47408,2.29057 0 0 1 0.96113,-0.16917a2.02458,1.87441 0 0 1 1.52392,0.55488a2.23289,2.06726 0 0 1 0.56644,1.50223l0.00365,0.53796zm-1.33754,-0.82894a1.51661,1.40412 0 0 0 -0.04385,-0.33834a0.89535,0.82894 0 0 0 -0.14252,-0.28759a0.7309,0.67668 0 0 0 -0.6103,-0.26729a0.8588,0.7951 0 0 0 -0.6505,0.24699a1.19501,1.10638 0 0 0 -0.30332,0.67668l1.75049,-0.03045z" class="cls-2"/>
   <path stroke="null" id="svg_38" d="m148.83537,23.89956a2.62757,2.43267 0 0 0 -1.12192,-0.25714a0.90266,0.8357 0 0 0 -0.48605,0.1015a0.33256,0.30789 0 0 0 -0.17176,0.27406a0.36545,0.33834 0 0 0 0.14983,0.28082a2.05016,1.89809 0 0 0 0.61761,0.23684l0.29236,0.0812a2.03189,1.88118 0 0 1 0.92458,0.47368a1.20232,1.11314 0 0 1 0.31429,0.80187a1.33388,1.23495 0 0 1 -0.53355,1.01502a2.3279,2.15523 0 0 1 -1.46179,0.38233a3.5485,3.28529 0 0 1 -1.60432,-0.30789l0.29601,-0.89322a3.42425,3.17026 0 0 0 0.59933,0.22331a2.23654,2.07065 0 0 0 0.63953,0.08459a1.05614,0.97781 0 0 0 0.57375,-0.11165a0.36545,0.33834 0 0 0 0.18272,-0.29774a0.36545,0.33834 0 0 0 -0.17541,-0.29436a2.79933,2.59169 0 0 0 -0.66877,-0.23346l-0.30698,-0.0812a1.87109,1.73231 0 0 1 -0.86246,-0.48383a1.27541,1.18081 0 0 1 -0.27774,-0.79849a1.30099,1.20449 0 0 1 0.48239,-0.96766a2.05382,1.90148 0 0 1 1.3485,-0.37218a3.54119,3.27853 0 0 1 1.51295,0.28421l-0.26312,0.85939z" class="cls-2"/>
   <path stroke="null" id="svg_39" d="m156.56824,21.46689l0,0.96766l-2.58737,0l0,1.51915l2.3681,0l0,0.95412l-2.3681,0l0,2.29734l-1.3485,0l0,-5.7518l3.93587,0.01353z" class="cls-2"/>
   <path stroke="null" id="svg_40" d="m157.46724,27.20516l0,-6.50292l1.29368,0l0,6.50292l-1.29368,0z" class="cls-2"/>
   <path stroke="null" id="svg_41" d="m164.15494,25.34766l-3.11727,0l0,0.03383a0.94651,0.8763 0 0 0 0.39468,0.7748a1.72491,1.59697 0 0 0 1.01229,0.25376a2.78837,2.58154 0 0 0 0.6907,-0.07105a3.43886,3.18379 0 0 0 0.54817,-0.17255l0.23389,0.84585a3.24152,3.00109 0 0 1 -0.66877,0.20639a4.26477,3.94844 0 0 1 -0.95382,0.08459a3.41328,3.16011 0 0 1 -0.99767,-0.13195a2.28039,2.11125 0 0 1 -0.81495,-0.40601a2.09036,1.93531 0 0 1 -0.55548,-0.67668a2.55813,2.36839 0 0 1 -0.20831,-1.01502a3.01494,2.79131 0 0 1 0.16811,-0.94397a2.26578,2.09771 0 0 1 0.47874,-0.72405a2.15614,1.99621 0 0 1 0.7309,-0.46691a2.47408,2.29057 0 0 1 0.96113,-0.16917a2.02458,1.87441 0 0 1 1.52026,0.53796a2.23289,2.06726 0 0 1 0.56644,1.50223l0.01096,0.53796zm-1.33754,-0.82894a1.51661,1.40412 0 0 0 -0.04385,-0.33834a0.89535,0.82894 0 0 0 -0.14252,-0.28759a0.7309,0.67668 0 0 0 -0.6103,-0.26729a0.8588,0.7951 0 0 0 -0.6505,0.24699a1.19501,1.10638 0 0 0 -0.30332,0.67668l1.75049,-0.03045z" class="cls-2"/>
   <path stroke="null" id="svg_42" d="m167.69613,24.98225l1.65913,2.2229l-1.50199,0l-0.49335,-0.67668l-0.48239,-0.7951l-0.44219,0.78833l-0.47143,0.67668l-1.48372,0l1.64086,-2.2229l-1.54219,-2.1214l1.46179,0l0.48239,0.67668l0.43123,0.7545l0.41296,-0.7545l0.44219,-0.67668l1.42525,0l-1.53853,2.12817z" class="cls-2"/>
   <path stroke="null" id="svg_43" d="m170.79147,21.9338a0.6907,0.63946 0 0 1 -0.51894,-0.17932a0.65781,0.60901 0 0 1 -0.19003,-0.43984a0.66511,0.61578 0 0 1 0.19003,-0.44323a0.80033,0.74097 0 0 1 1.03422,0a0.69435,0.64285 0 0 1 0,0.88307a0.69801,0.64623 0 0 1 -0.51528,0.17932zm-0.65781,5.27135l0,-4.3443l1.3083,0l0,4.3443l-1.3083,0z" class="cls-2"/>
   <path stroke="null" id="svg_44" d="m177.39876,25.05669a2.95647,2.73718 0 0 1 -0.16811,0.9372a2.37906,2.2026 0 0 1 -0.46046,0.7139a1.95515,1.81013 0 0 1 -0.70166,0.44999a2.21461,2.05035 0 0 1 -0.87342,0.15564a1.94784,1.80336 0 0 1 -0.78571,-0.13195a1.72857,1.60035 0 0 1 -0.5701,-0.36879l-0.0402,0l-0.08771,0.40263l-0.95382,0l0,-6.51307l1.30099,0l0,2.51387a1.76511,1.63419 0 0 1 0.57375,-0.33834a1.94418,1.79997 0 0 1 0.70166,-0.11842a1.85647,1.71877 0 0 1 1.5093,0.60225a2.71528,2.51387 0 0 1 0.55548,1.69509zm-1.3485,0.02707a1.82724,1.69171 0 0 0 -0.28505,-1.01502a0.95016,0.87969 0 0 0 -0.80764,-0.33834a1.04518,0.96766 0 0 0 -0.51163,0.1218a1.25349,1.16051 0 0 0 -0.36545,0.27744l0,1.99283a1.04153,0.96427 0 0 0 0.3289,0.23007a1.01229,0.9372 0 0 0 0.43123,0.05752a1.25714,1.16389 0 0 0 0.46046,-0.0812a1.11827,1.03532 0 0 0 0.39103,-0.24361a1.25349,1.16051 0 0 0 0.27043,-0.41616a1.87475,1.73569 0 0 0 0.0804,-0.59548l0.00731,0.01015z" class="cls-2"/>
   <path stroke="null" id="svg_45" d="m178.36354,27.20516l0,-6.50292l1.29003,0l0,6.50292l-1.29003,0z" class="cls-2"/>
   <path stroke="null" id="svg_46" d="m185.05124,25.34766l-3.11727,0l0,0.03383a0.95382,0.88307 0 0 0 0.39103,0.7748a1.74684,1.61727 0 0 0 1.01594,0.25376a2.78837,2.58154 0 0 0 0.6907,-0.07105a3.43886,3.18379 0 0 0 0.54817,-0.17255l0.23389,0.84585a3.24152,3.00109 0 0 1 -0.66877,0.20639a4.26477,3.94844 0 0 1 -0.95382,0.08459a3.39501,3.14319 0 0 1 -0.99767,-0.13195a2.25116,2.08418 0 0 1 -0.81495,-0.40601a2.05016,1.89809 0 0 1 -0.55548,-0.67668a2.55813,2.36839 0 0 1 -0.20831,-1.01502a2.92358,2.70673 0 0 1 0.16811,-0.94397a2.21096,2.04696 0 0 1 0.47874,-0.72405a2.15614,1.99621 0 0 1 0.7309,-0.46691a2.47408,2.29057 0 0 1 0.96113,-0.16917a2.02458,1.87441 0 0 1 1.52026,0.53796a2.23289,2.06726 0 0 1 0.56644,1.50223l0.01096,0.53796zm-1.33754,-0.82894a1.51661,1.40412 0 0 0 -0.04385,-0.33834a0.89535,0.82894 0 0 0 -0.14252,-0.28759a0.7309,0.67668 0 0 0 -0.6103,-0.26729a0.8588,0.7951 0 0 0 -0.6505,0.24699a1.19501,1.10638 0 0 0 -0.30332,0.67668l1.75049,-0.03045z" class="cls-2"/>
   <path stroke="null" id="svg_47" d="m188.80804,23.89956a2.62757,2.43267 0 0 0 -1.12192,-0.25714a0.90266,0.8357 0 0 0 -0.48605,0.1015a0.33256,0.30789 0 0 0 -0.17176,0.27406a0.36545,0.33834 0 0 0 0.14983,0.28082a2.05016,1.89809 0 0 0 0.61761,0.23684l0.29236,0.0812a2.03189,1.88118 0 0 1 0.92458,0.47368a1.20232,1.11314 0 0 1 0.31429,0.80187a1.33388,1.23495 0 0 1 -0.53355,1.01502a2.3279,2.15523 0 0 1 -1.46179,0.38233a3.5485,3.28529 0 0 1 -1.60432,-0.30789l0.29601,-0.89322a3.42425,3.17026 0 0 0 0.59933,0.22331a2.23654,2.07065 0 0 0 0.64319,0.09812a1.05614,0.97781 0 0 0 0.57375,-0.11165a0.36545,0.33834 0 0 0 0.18272,-0.29774a0.36545,0.33834 0 0 0 -0.17541,-0.29436a2.79933,2.59169 0 0 0 -0.66877,-0.23346l-0.30698,-0.0812a1.87109,1.73231 0 0 1 -0.86246,-0.48383a1.27541,1.18081 0 0 1 -0.27774,-0.79849a1.30099,1.20449 0 0 1 0.48239,-0.96766a2.05382,1.90148 0 0 1 1.3485,-0.37218a3.54119,3.27853 0 0 1 1.51295,0.28421l-0.26678,0.84585z" class="cls-2"/>
   <path stroke="null" id="svg_48" d="m196.82962,21.46689l0,0.98457l-1.75049,0l0,4.73678l-1.34485,0l0,-4.73678l-1.7176,0l0,-0.98457l4.81295,0z" class="cls-2"/>
   <path stroke="null" id="svg_49" d="m201.09805,25.28338l-3.11727,0l0,0.03383a1.03422,0.95751 0 0 0 0.39468,0.82555a1.65913,1.53607 0 0 0 1.01229,0.26729a2.82126,2.61199 0 0 0 0.69435,-0.07105a3.51926,3.25823 0 0 0 0.54452,-0.17255l0.23754,0.84585a3.39866,3.14657 0 0 1 -0.66877,0.20639a4.30863,3.98904 0 0 1 -0.95382,0.08459a3.39501,3.14319 0 0 1 -0.99767,-0.13195a2.26578,2.09771 0 0 1 -0.8186,-0.40601a2.09036,1.93531 0 0 1 -0.55548,-0.67668a2.55813,2.36839 0 0 1 -0.20465,-1.01502a3.01494,2.79131 0 0 1 0.16445,-0.94397a2.26578,2.09771 0 0 1 0.47874,-0.72405a2.15614,1.99621 0 0 1 0.7309,-0.46691a2.48139,2.29734 0 0 1 0.96478,-0.16917a2.02823,1.87779 0 0 1 1.52026,0.53796a2.22923,2.06388 0 0 1 0.56279,1.50223l0.01096,0.47368zm-1.33754,-0.76465a1.51661,1.40412 0 0 0 -0.04385,-0.33834a0.89535,0.82894 0 0 0 -0.14252,-0.28759a0.70897,0.65638 0 0 0 -0.2485,-0.18947a0.7309,0.67668 0 0 0 -0.36545,-0.07444a0.85149,0.78833 0 0 0 -0.64684,0.24699a1.17674,1.08946 0 0 0 -0.30698,0.67668l1.75415,-0.03383zm-0.68704,-2.3041l-0.93555,0l0.6907,-1.35336l1.3083,0l-1.06345,1.35336z" class="cls-2"/>
   <path stroke="null" id="svg_50" d="m204.48209,26.41005a1.72491,1.59697 0 0 0 0.55548,-0.07444a3.50464,3.24469 0 0 0 0.39834,-0.15225l0.24485,0.83909a2.80298,2.59508 0 0 1 -0.5701,0.18947a3.19401,2.9571 0 0 1 -0.81495,0.09135a3.02956,2.80485 0 0 1 -0.99402,-0.14549a2.2475,2.0808 0 0 1 -0.80033,-0.43308a2.19269,2.03005 0 0 1 -0.53721,-0.70375a2.85415,2.64244 0 0 1 0,-1.90486a2.2475,2.0808 0 0 1 1.33023,-1.18081a2.85415,2.64244 0 0 1 1.03056,-0.16579a3.65448,3.38341 0 0 1 0.64319,0.05413a2.44119,2.26012 0 0 1 0.7309,0.23684l-0.27409,0.83909a2.22192,2.05711 0 0 0 -0.44585,-0.17932a1.72857,1.60035 0 0 0 -0.4897,-0.06767a1.34485,1.2451 0 0 0 -0.98671,0.33834a1.46179,1.35336 0 0 0 -0.36545,1.01502a1.85647,1.71877 0 0 0 0.12425,0.65977a1.2681,1.17404 0 0 0 0.32159,0.43308a1.16943,1.08269 0 0 0 0.44219,0.23684a1.64817,1.52592 0 0 0 0.45681,0.07444z" class="cls-2"/>
   <path stroke="null" id="svg_51" d="m207.86248,27.20516l-1.30465,0l0,-4.3443l1.0196,0l0.1608,0.55488a2.39368,2.21613 0 0 1 0.71262,-0.47706a1.999,1.85073 0 0 1 0.8588,-0.16917a1.59701,1.47855 0 0 1 1.19136,0.39248a1.69202,1.56652 0 0 1 0.41296,1.13683l0,2.90635l-1.3083,0l0,-2.77778a0.8588,0.7951 0 0 0 -0.17907,-0.53458a0.64319,0.59548 0 0 0 -0.51894,-0.19285a1.18405,1.09623 0 0 0 -0.53721,0.13195a1.82724,1.69171 0 0 0 -0.50797,0.35864l0,3.01462z" class="cls-2"/>
   <path stroke="null" id="svg_52" d="m212.86912,21.9338a0.70166,0.64961 0 0 1 -0.52259,-0.17932a0.65415,0.60563 0 0 1 -0.18638,-0.43984a0.66146,0.6124 0 0 1 0.18638,-0.44323a0.80398,0.74435 0 0 1 1.03787,0a0.69435,0.64285 0 0 1 0,0.88307a0.69801,0.64623 0 0 1 -0.51528,0.17932zm-0.65781,5.27135l0,-4.3443l1.3083,0l0,4.3443l-1.3083,0z" class="cls-2"/>
   <path stroke="null" id="svg_53" d="m217.27642,26.41005a1.72491,1.59697 0 0 0 0.55548,-0.07444a3.80797,3.52551 0 0 0 0.39834,-0.15225l0.24485,0.83909a2.80298,2.59508 0 0 1 -0.5701,0.18947a3.20132,2.96387 0 0 1 -0.8186,0.09135a3.02591,2.80146 0 0 1 -0.99036,-0.14549a2.22923,2.06388 0 0 1 -0.80398,-0.43308a2.19269,2.03005 0 0 1 -0.53355,-0.70375a2.85415,2.64244 0 0 1 0,-1.90486a2.25481,2.08756 0 0 1 1.32658,-1.18081a2.87242,2.65936 0 0 1 1.03422,-0.16579a3.68737,3.41386 0 0 1 0.64319,0.05413a2.44119,2.26012 0 0 1 0.71262,0.23684l-0.27409,0.83909a2.25481,2.08756 0 0 0 -0.4495,-0.17932a1.70299,1.57667 0 0 0 -0.48605,-0.06767a1.34485,1.2451 0 0 0 -0.98671,0.33834a1.46179,1.35336 0 0 0 -0.36545,1.01502a1.79069,1.65787 0 0 0 0.12425,0.65977a1.26079,1.16728 0 0 0 0.31794,0.43308a1.19867,1.10976 0 0 0 0.44219,0.23684a1.68837,1.56314 0 0 0 0.47874,0.07444z" class="cls-2"/>
   <path stroke="null" id="svg_54" d="m223.61693,24.99917a2.78837,2.58154 0 0 1 -0.18638,0.96766a2.23289,2.06726 0 0 1 -1.28638,1.17743a2.64584,2.44959 0 0 1 -0.95382,0.15902a2.75913,2.55448 0 0 1 -0.95016,-0.14549a2.14883,1.98945 0 0 1 -0.75648,-0.42631a2.19269,2.03005 0 0 1 -0.50432,-0.69698a2.71162,2.51049 0 0 1 -0.17907,-0.94397a2.86511,2.65259 0 0 1 0.18638,-0.98796a2.19269,2.03005 0 0 1 1.28638,-1.17743a2.64584,2.44959 0 0 1 0.95382,-0.15564a2.75913,2.55448 0 0 1 0.95016,0.14549a2.19269,2.03005 0 0 1 0.75648,0.42293a2.10863,1.95223 0 0 1 0.51163,0.70375a2.72989,2.52741 0 0 1 0.17176,0.95751zm-1.3485,0.04737a2.37176,2.19583 0 0 0 -0.08771,-0.63946a1.29734,1.20111 0 0 0 -0.23389,-0.42631a0.93189,0.86277 0 0 0 -0.34352,-0.24022a0.98305,0.91014 0 0 0 -0.40565,-0.07782a1.09634,1.01502 0 0 0 -0.39103,0.06767a0.83322,0.77142 0 0 0 -0.33621,0.22669a1.34119,1.24171 0 0 0 -0.23754,0.42293a2.49601,2.31087 0 0 0 -0.08771,0.67668a2.21461,2.05035 0 0 0 0.08771,0.6124a1.39966,1.29585 0 0 0 0.2412,0.42631a1.03056,0.95412 0 0 0 0.34718,0.24361a0.94286,0.87292 0 0 0 0.39834,0.0812a1.0196,0.94397 0 0 0 0.39103,-0.06767a0.83322,0.77142 0 0 0 0.33621,-0.23007a1.34119,1.24171 0 0 0 0.23389,-0.42293a2.37906,2.2026 0 0 0 0.08771,-0.64285l0,-0.01015z" class="cls-2"/>
   <path stroke="null" id="svg_55" d="m227.3847,23.89956a2.62757,2.43267 0 0 0 -1.12192,-0.25714a0.90266,0.8357 0 0 0 -0.48605,0.1015a0.33256,0.30789 0 0 0 -0.17176,0.27406a0.36545,0.33834 0 0 0 0.14983,0.28082a2.05016,1.89809 0 0 0 0.61761,0.23684l0.29236,0.0812a2.03189,1.88118 0 0 1 0.92458,0.47368a1.20232,1.11314 0 0 1 0.31429,0.80187a1.33388,1.23495 0 0 1 -0.53355,1.01502a2.3279,2.15523 0 0 1 -1.46179,0.38233a3.5485,3.28529 0 0 1 -1.60432,-0.30789l0.29601,-0.89322a3.42425,3.17026 0 0 0 0.59933,0.22331a2.23654,2.07065 0 0 0 0.63953,0.08459a1.05614,0.97781 0 0 0 0.57375,-0.11165a0.36545,0.33834 0 0 0 0.18272,-0.29774a0.36545,0.33834 0 0 0 -0.17541,-0.29436a2.79933,2.59169 0 0 0 -0.66877,-0.23346l-0.30698,-0.0812a1.87109,1.73231 0 0 1 -0.86246,-0.48383a1.27541,1.18081 0 0 1 -0.27774,-0.79849a1.30099,1.20449 0 0 1 0.48239,-0.96766a2.05382,1.90148 0 0 1 1.3485,-0.37218a3.54119,3.27853 0 0 1 1.51295,0.28421l-0.26312,0.85939z" class="cls-2"/>
   <path stroke="null" id="svg_56" d="m117.94408,35.56895a1.82724,1.69171 0 0 1 -0.44219,-0.05075a1.36312,1.26201 0 0 1 -0.36545,-0.13195l0,1.92178l-1.13289,0l0,-5.63l0.86611,0l0.1206,0.41954a2.05382,1.90148 0 0 1 0.56644,-0.33834a1.72491,1.59697 0 0 1 0.71262,-0.13195a1.60432,1.48532 0 0 1 1.27541,0.50413a2.25116,2.08418 0 0 1 0.47874,1.38382a2.59102,2.39884 0 0 1 -0.16445,0.88645a1.97707,1.83043 0 0 1 -0.44585,0.64623a1.78704,1.65449 0 0 1 -0.66146,0.39248a2.24385,2.07741 0 0 1 -0.80764,0.12857zm0,-3.16011a0.9392,0.86954 0 0 0 -0.50066,0.1218a1.41428,1.30938 0 0 0 -0.32525,0.25037l0,1.81013a1.00864,0.93382 0 0 0 0.66146,0.19962a0.96844,0.8966 0 0 0 0.36545,-0.06767a0.92458,0.856 0 0 0 0.33621,-0.21315a1.14385,1.05901 0 0 0 0.23754,-0.38571a1.84917,1.71201 0 0 0 0.09136,-0.57856a2.05016,1.89809 0 0 0 -0.05482,-0.45338a1.20598,1.11653 0 0 0 -0.16811,-0.35864a0.83322,0.77142 0 0 0 -0.27409,-0.23684a0.7309,0.67668 0 0 0 -0.35083,-0.08797l-0.01827,0z" class="cls-2"/>
   <path stroke="null" id="svg_57" d="m120.88593,32.02652a3.28903,3.04507 0 0 1 0.78206,-0.30451a3.21229,2.97402 0 0 1 0.87342,-0.10827a2.41561,2.23643 0 0 1 0.67242,0.0812a1.29368,1.19773 0 0 1 0.52259,0.25037a1.14751,1.06239 0 0 1 0.33621,0.43646a1.82724,1.69171 0 0 1 0.11694,0.63946l0,2.45974l-0.87707,0l-0.10233,-0.38909l-0.03654,0a1.34119,1.24171 0 0 1 -0.50066,0.33834a1.7176,1.5902 0 0 1 -0.70897,0.12519a1.64817,1.52592 0 0 1 -0.59203,-0.09135a1.30099,1.20449 0 0 1 -0.43488,-0.24699a1.00498,0.93044 0 0 1 -0.27043,-0.36879a1.3083,1.21126 0 0 1 -0.09136,-0.46014a1.16943,1.08269 0 0 1 0.14252,-0.53458a1.2279,1.13683 0 0 1 0.40199,-0.39586a1.93322,1.78982 0 0 1 0.62126,-0.22331a3.65448,3.38341 0 0 1 0.76744,-0.07105l0.51528,0l0,-0.23007a0.48605,0.44999 0 0 0 -0.17541,-0.38571a0.80764,0.74773 0 0 0 -0.49335,-0.1218a1.82724,1.69171 0 0 0 -0.50432,0.07444a3.19036,2.95372 0 0 0 -0.57741,0.23007l-0.38737,-0.70375zm2.1598,1.79659l-0.36545,0a1.31196,1.21464 0 0 0 -0.7309,0.1624a0.46777,0.43308 0 0 0 -0.20465,0.35526a0.43123,0.39924 0 0 0 0.17541,0.36879a0.76379,0.70713 0 0 0 0.39834,0.09812a0.78571,0.72743 0 0 0 0.42392,-0.11842a0.88073,0.8154 0 0 0 0.30332,-0.27744l0,-0.58871z" class="cls-2"/>
   <path stroke="null" id="svg_58" d="m125.15801,35.48098l0,-3.78604l0.88438,0l0.12791,0.67668a1.50564,1.39397 0 0 1 0.46412,-0.53458a1.24983,1.15713 0 0 1 0.79668,-0.23007a1.27907,1.18419 0 0 1 0.36545,0.0406a1.16212,1.07592 0 0 1 0.25947,0.09474l-0.19003,0.8357a0.95382,0.88307 0 0 0 -0.2412,-0.08459a1.34485,1.2451 0 0 0 -0.34352,-0.03722a0.95016,0.87969 0 0 0 -0.69801,0.26052a1.25349,1.16051 0 0 0 -0.27774,0.84585l0,1.91163l-1.14751,0.00677z" class="cls-2"/>
   <path stroke="null" id="svg_59" d="m128.42877,32.02652a3.32192,3.07552 0 0 1 0.7784,-0.30451a3.25979,3.018 0 0 1 0.87707,-0.10827a2.41561,2.23643 0 0 1 0.67242,0.0812a1.31927,1.22141 0 0 1 0.52259,0.25037a1.14751,1.06239 0 0 1 0.33621,0.43646a1.82724,1.69171 0 0 1 0.11694,0.63946l0,2.45974l-0.86977,0l-0.10233,-0.38909l-0.03654,0a1.37043,1.26878 0 0 1 -0.50066,0.33834a1.7176,1.5902 0 0 1 -0.70897,0.12519a1.64817,1.52592 0 0 1 -0.59203,-0.09135a1.26445,1.17066 0 0 1 -0.43488,-0.24699a1.00498,0.93044 0 0 1 -0.27043,-0.36879a1.3083,1.21126 0 0 1 -0.09136,-0.46014a1.16943,1.08269 0 0 1 0.14983,-0.55826a1.19501,1.10638 0 0 1 0.41661,-0.38571a1.93322,1.78982 0 0 1 0.62126,-0.22331a3.65448,3.38341 0 0 1 0.76744,-0.07105l0.51528,0l0,-0.23007a0.48605,0.44999 0 0 0 -0.17541,-0.38571a0.80764,0.74773 0 0 0 -0.49335,-0.1218a1.82724,1.69171 0 0 0 -0.51163,0.07105a3.19036,2.95372 0 0 0 -0.57741,0.23007l-0.4093,-0.68683zm2.19269,1.79659l-0.36545,0a1.30465,1.20788 0 0 0 -0.7309,0.1624a0.46777,0.43308 0 0 0 -0.20465,0.35526a0.43123,0.39924 0 0 0 0.17541,0.36879a0.76379,0.70713 0 0 0 0.39834,0.09812a0.78571,0.72743 0 0 0 0.42392,-0.11842a0.88073,0.8154 0 0 0 0.30332,-0.27744l0,-0.58871z" class="cls-2"/>
   <path stroke="null" id="svg_60" d="m134.72178,35.48098l0,-5.6706l1.12558,0l0,5.6706l-1.12558,0z" class="cls-2"/>
   <path stroke="null" id="svg_61" d="m136.97659,32.02652a3.41328,3.16011 0 0 1 0.78206,-0.30451a3.23056,2.99094 0 0 1 0.87342,-0.10827a2.44485,2.2635 0 0 1 0.67608,0.0812a1.34485,1.2451 0 0 1 0.52259,0.25037a1.1402,1.05562 0 0 1 0.33256,0.43646a1.77242,1.64095 0 0 1 0.11694,0.63946l0,2.45974l-0.88804,0l-0.10233,-0.38909l-0.03289,0a1.35581,1.25525 0 0 1 -0.50432,0.33834a1.69933,1.57329 0 0 1 -0.70531,0.12519a1.64817,1.52592 0 0 1 -0.59203,-0.09135a1.31927,1.22141 0 0 1 -0.43854,-0.24699a1.04518,0.96766 0 0 1 -0.27043,-0.36879a1.38139,1.27893 0 0 1 -0.08771,-0.46014a1.13654,1.05224 0 0 1 0.14983,-0.55826a1.21694,1.12668 0 0 1 0.41296,-0.38571a1.98804,1.84058 0 0 1 0.62492,-0.22331a3.65448,3.38341 0 0 1 0.76744,-0.07105l0.51528,0l0,-0.23007a0.4897,0.45338 0 0 0 -0.17907,-0.38571a0.80764,0.74773 0 0 0 -0.49335,-0.1218a1.80531,1.67141 0 0 0 -0.50797,0.07105a3.10631,2.8759 0 0 0 -0.58106,0.23007l-0.39103,-0.68683zm2.16345,1.79659l-0.36545,0a1.31927,1.22141 0 0 0 -0.7309,0.1624a0.47508,0.43984 0 0 0 -0.20465,0.35526a0.43123,0.39924 0 0 0 0.17541,0.36879a0.77109,0.7139 0 0 0 0.39834,0.09812a0.80033,0.74097 0 0 0 0.42757,-0.11842a0.95016,0.87969 0 0 0 0.30332,-0.27744l-0.00365,-0.58871z" class="cls-2"/>
   <path stroke="null" id="svg_62" d="m144.47558,30.47015l0,5.00068l-1.17674,0l0,-5.00068l1.17674,0z" class="cls-2"/>
   <path stroke="null" id="svg_63" d="m146.73039,35.48098l-1.12558,0l0,-3.78604l0.87707,0l0.13887,0.48383a2.08671,1.93193 0 0 1 0.62126,-0.41616a1.74319,1.61389 0 0 1 0.7309,-0.14887a1.38505,1.28231 0 0 1 1.03787,0.33834a1.46179,1.35336 0 0 1 0.36545,0.99472l0,2.53079l-1.12558,0l0,-2.42252a0.7309,0.67668 0 0 0 -0.15714,-0.46353a0.55913,0.51766 0 0 0 -0.45316,-0.16917a1.0196,0.94397 0 0 0 -0.46777,0.11504a1.49468,1.38382 0 0 0 -0.44219,0.31127l0,2.63229z" class="cls-2"/>
   <path stroke="null" id="svg_64" d="m153.07091,29.81038l1.1402,0l0,5.6706l-0.81495,0l-0.1206,-0.41278l-0.04385,0a1.37408,1.27216 0 0 1 -0.43854,0.33834a1.55315,1.43795 0 0 1 -0.75282,0.14887a1.76146,1.6308 0 0 1 -0.7309,-0.13534a1.69568,1.5699 0 0 1 -0.58472,-0.38909a1.94053,1.79659 0 0 1 -0.3691,-0.60563a2.63853,2.44282 0 0 1 -0.14252,-0.83232a2.90165,2.68643 0 0 1 0.12791,-0.81879a1.90033,1.75937 0 0 1 0.38007,-0.6124a1.63355,1.51238 0 0 1 0.59203,-0.39924a2.06843,1.91501 0 0 1 0.80764,-0.13872a1.72857,1.60035 0 0 1 0.55183,0.0812a1.12192,1.03871 0 0 1 0.41661,0.20639l-0.01827,-2.1011zm0,2.8759a0.92824,0.85939 0 0 0 -0.29236,-0.21315a0.85149,0.78833 0 0 0 -0.39468,-0.08797a1.07442,0.99472 0 0 0 -0.39103,0.06428a0.82957,0.76803 0 0 0 -0.32525,0.203a1.03056,0.95412 0 0 0 -0.22658,0.36541a1.76511,1.63419 0 0 0 -0.08771,0.5515a2.04285,1.89133 0 0 0 0.07674,0.54811a1.26445,1.17066 0 0 0 0.20831,0.37894a0.76744,0.71052 0 0 0 0.30332,0.22331a0.92093,0.85262 0 0 0 0.36545,0.07105a0.81129,0.75112 0 0 0 0.46777,-0.1218a0.86977,0.80525 0 0 0 0.2887,-0.29097l0.00731,-1.69171z" class="cls-2"/>
   <path stroke="null" id="svg_65" d="m157.89847,31.69494l1.1402,0l0,3.78604l-0.84784,0l-0.1206,-0.42631l-0.0402,0a2.41561,2.23643 0 0 1 -0.21927,0.17594a1.60066,1.48193 0 0 1 -0.29236,0.16917a1.75049,1.62065 0 0 1 -0.36545,0.1218a1.85282,1.71539 0 0 1 -0.46777,0.04737a1.41794,1.31276 0 0 1 -1.04153,-0.33834a1.43621,1.32968 0 0 1 -0.36545,-1.01502l0,-2.52402l1.14385,0l0,2.43606a0.69801,0.64623 0 0 0 0.17541,0.49398a0.62857,0.58195 0 0 0 0.4495,0.14887a1.00498,0.93044 0 0 0 0.52624,-0.11842a1.12558,1.04209 0 0 0 0.36545,-0.27744l-0.0402,-2.67966z" class="cls-2"/>
   <path stroke="null" id="svg_66" d="m162.53966,32.59831a2.30232,2.13155 0 0 0 -0.97575,-0.21992a0.8186,0.75788 0 0 0 -0.42757,0.08459a0.29967,0.27744 0 0 0 -0.14983,0.24022a0.31794,0.29436 0 0 0 0.13522,0.24699a1.9186,1.77629 0 0 0 0.53355,0.20639l0.25947,0.07105a1.74319,1.61389 0 0 1 0.80398,0.41278a1.05614,0.97781 0 0 1 0.27774,0.69698a1.16578,1.07931 0 0 1 -0.46777,0.89999a2.05016,1.89809 0 0 1 -1.2681,0.33834a3.05149,2.82515 0 0 1 -1.39601,-0.27067l0.25581,-0.77818a2.95282,2.7338 0 0 0 0.52259,0.19624a1.93322,1.78982 0 0 0 0.55913,0.07444a0.92824,0.85939 0 0 0 0.50066,-0.09812a0.3289,0.30451 0 0 0 0.1608,-0.25714a0.31429,0.29097 0 0 0 -0.15714,-0.26052a2.42657,2.24659 0 0 0 -0.58106,-0.203l-0.26678,-0.07105a1.66644,1.54284 0 0 1 -0.75648,-0.41954a1.15116,1.06577 0 0 1 -0.23754,-0.70037a1.12558,1.04209 0 0 1 0.42026,-0.83909a1.7578,1.62742 0 0 1 1.17309,-0.33834a3.14285,2.90973 0 0 1 1.32292,0.24699l-0.2412,0.74097z" class="cls-2"/>
   <path stroke="null" id="svg_67" d="m166.2453,32.45621l-1.09634,0l0,1.73569a0.50066,0.46353 0 0 0 0.13156,0.37218a0.5701,0.52781 0 0 0 0.36545,0.09812a1.9588,1.81351 0 0 0 0.36545,-0.03045a1.09634,1.01502 0 0 0 0.29236,-0.08797l0.17176,0.73758a2.41195,2.23305 0 0 1 -0.43854,0.12857a2.78471,2.57816 0 0 1 -0.61761,0.0609a1.54219,1.4278 0 0 1 -1.06345,-0.27406a1.15481,1.06916 0 0 1 -0.31794,-0.82217l0,-1.92854l-0.63222,0l0,-0.76127l0.63222,0l0,-1.16728l1.13289,0l0,1.16728l1.09634,0l-0.02193,0.77142z" class="cls-2"/>
   <path stroke="null" id="svg_68" d="m167.07852,35.48098l0,-3.78604l0.88438,0l0.12791,0.67668a1.50564,1.39397 0 0 1 0.46412,-0.53458a1.24983,1.15713 0 0 1 0.79668,-0.23007a1.27907,1.18419 0 0 1 0.36545,0.0406a1.16212,1.07592 0 0 1 0.25947,0.09474l-0.19003,0.8357a0.95382,0.88307 0 0 0 -0.2412,-0.08459a1.34485,1.2451 0 0 0 -0.34352,-0.03722a0.95016,0.87969 0 0 0 -0.69801,0.26052a1.25349,1.16051 0 0 0 -0.27774,0.84585l0,1.91163l-1.14751,0.00677z" class="cls-2"/>
   <path stroke="null" id="svg_69" d="m171.05094,30.88292a0.61395,0.56841 0 0 1 -0.45681,-0.15225a0.57375,0.5312 0 0 1 -0.1608,-0.38571a0.56279,0.52105 0 0 1 0.1608,-0.38571a0.69435,0.64285 0 0 1 0.90631,0a0.56644,0.52443 0 0 1 0.16811,0.38571a0.57741,0.53458 0 0 1 -0.16445,0.38571a0.6103,0.56503 0 0 1 -0.45316,0.15225zm-0.57741,4.59806l0,-3.78604l1.14385,0l0,3.78604l-1.14385,0z" class="cls-2"/>
   <path stroke="null" id="svg_70" d="m172.8599,32.02652a3.32192,3.07552 0 0 1 0.7784,-0.30451a3.25979,3.018 0 0 1 0.87707,-0.10827a2.41561,2.23643 0 0 1 0.67242,0.0812a1.31927,1.22141 0 0 1 0.52259,0.25037a1.14751,1.06239 0 0 1 0.33621,0.43646a1.82724,1.69171 0 0 1 0.11694,0.63946l0,2.45974l-0.88438,0l-0.10233,-0.38909l-0.03654,0a1.37043,1.26878 0 0 1 -0.50066,0.33834a1.7176,1.5902 0 0 1 -0.70897,0.12519a1.64817,1.52592 0 0 1 -0.59203,-0.09135a1.26445,1.17066 0 0 1 -0.43488,-0.24699a1.00498,0.93044 0 0 1 -0.25581,-0.34849a1.3083,1.21126 0 0 1 -0.09136,-0.46014a1.16943,1.08269 0 0 1 0.14983,-0.55826a1.19501,1.10638 0 0 1 0.41661,-0.38571a1.93322,1.78982 0 0 1 0.62126,-0.22331a3.65448,3.38341 0 0 1 0.76744,-0.07105l0.51528,0l0,-0.23007a0.48605,0.44999 0 0 0 -0.17541,-0.38571a0.80764,0.74773 0 0 0 -0.49335,-0.1218a1.82724,1.69171 0 0 0 -0.51163,0.07105a3.19036,2.95372 0 0 0 -0.57741,0.23007l-0.4093,-0.70713zm2.1598,1.79659l-0.36545,0a1.29734,1.20111 0 0 0 -0.7309,0.1624a0.46777,0.43308 0 0 0 -0.20465,0.35526a0.43123,0.39924 0 0 0 0.17541,0.36879a0.76379,0.70713 0 0 0 0.39834,0.09812a0.79668,0.73758 0 0 0 0.42392,-0.11842a0.88073,0.8154 0 0 0 0.30332,-0.27744l0,-0.58871z" class="cls-2"/>
   <path stroke="null" id="svg_71" d="m181.74759,29.81038l1.13289,0l0,5.6706l-0.81495,0l-0.1206,-0.41278l-0.04385,0a1.35216,1.25186 0 0 1 -0.44219,0.33834a1.53853,1.42442 0 0 1 -0.7309,0.14887a1.76146,1.6308 0 0 1 -0.7309,-0.13534a1.69568,1.5699 0 0 1 -0.58472,-0.38909a2.00631,1.85749 0 0 1 -0.39103,-0.61916a2.73355,2.53079 0 0 1 -0.13887,-0.83232a2.79567,2.58831 0 0 1 0.12791,-0.81879a1.90033,1.75937 0 0 1 0.36545,-0.62255a1.63355,1.51238 0 0 1 0.59203,-0.39924a2.04651,1.89471 0 0 1 0.80398,-0.13872a1.73588,1.60712 0 0 1 0.55548,0.0812a1.18405,1.09623 0 0 1 0.41661,0.20639l0.00365,-2.07741zm0,2.8759a0.92824,0.85939 0 0 0 -0.29236,-0.21315a0.85149,0.78833 0 0 0 -0.39468,-0.08797a1.07442,0.99472 0 0 0 -0.39103,0.06428a0.80398,0.74435 0 0 0 -0.32525,0.203a1.03056,0.95412 0 0 0 -0.22658,0.36541a1.76511,1.63419 0 0 0 -0.08771,0.5515a2.04285,1.89133 0 0 0 0.07674,0.54811a1.19867,1.10976 0 0 0 0.20831,0.37894a0.76744,0.71052 0 0 0 0.30332,0.22331a0.92093,0.85262 0 0 0 0.36545,0.07105a0.81129,0.75112 0 0 0 0.46777,-0.1218a0.90631,0.83909 0 0 0 0.2887,-0.29097l0.00731,-1.69171z" class="cls-2"/>
   <path stroke="null" id="svg_72" d="m187.58014,33.85356l-2.71893,0l0,0.03045a0.82226,0.76127 0 0 0 0.34352,0.67668a1.49468,1.38382 0 0 0 0.88073,0.22331a2.3279,2.15523 0 0 0 0.60664,-0.06428a3.01129,2.78793 0 0 0 0.47508,-0.14887l0.20465,0.73758a2.92358,2.70673 0 0 1 -0.58106,0.17932a3.69833,3.42401 0 0 1 -0.83322,0.07444a2.92358,2.70673 0 0 1 -0.86977,-0.11504a1.96976,1.82366 0 0 1 -0.71262,-0.33834a1.82724,1.69171 0 0 1 -0.48605,-0.60563a2.30963,2.13832 0 0 1 -0.17907,-0.87292a2.55813,2.36839 0 0 1 0.14618,-0.82217a1.93687,1.79321 0 0 1 0.41661,-0.62931a1.87109,1.73231 0 0 1 0.64684,-0.40939a2.15249,1.99283 0 0 1 0.84053,-0.14887a1.7578,1.62742 0 0 1 1.32658,0.47029a1.93687,1.79321 0 0 1 0.49335,1.30938l0,0.45338zm-1.16578,-0.72405a1.3083,1.21126 0 0 0 -0.0402,-0.29436a0.7309,0.67668 0 0 0 -0.12425,-0.25037a0.61395,0.56841 0 0 0 -0.21561,-0.16917a0.63953,0.5921 0 0 0 -0.31794,-0.06428a0.76013,0.70375 0 0 0 -0.56644,0.21315a1.06345,0.98457 0 0 0 -0.26312,0.58195l1.52757,-0.01692z" class="cls-2"/>
   <path stroke="null" id="svg_73" d="m191.96185,30.47015l1.21694,0l1.999,5.00068l-1.24252,0l-0.42026,-1.15036l-1.92225,0l-0.42026,1.15036l-1.22425,0l2.01362,-5.00068zm-0.10233,3.04507l1.37408,0l-0.25216,-0.67668c-0.07674,-0.20639 -0.15349,-0.41616 -0.22292,-0.62255l-0.19734,-0.6327l0,0c-0.06213,0.19962 -0.13156,0.40601 -0.20831,0.61578s-0.14983,0.42293 -0.23023,0.63946l-0.26312,0.67668z" class="cls-2"/>
   <path stroke="null" id="svg_74" d="m195.82098,35.48098l0,-5.6706l1.12558,0l0,5.6706l-1.12558,0z" class="cls-2"/>
   <path stroke="null" id="svg_75" d="m198.67878,30.88292a0.60664,0.56165 0 0 1 -0.45316,-0.15225a0.57741,0.53458 0 0 1 -0.16445,-0.38571a0.56279,0.52105 0 0 1 0.16445,-0.38571a0.6907,0.63946 0 0 1 0.90266,0a0.55183,0.5109 0 0 1 0.16811,0.38571a0.57741,0.53458 0 0 1 -0.16445,0.38571a0.60664,0.56165 0 0 1 -0.45316,0.15225zm-0.57375,4.59806l0,-3.78604l1.1402,0l0,3.78604l-1.1402,0z" class="cls-2"/>
   <path stroke="null" id="svg_76" d="m201.51831,35.48098l-1.1402,0l0,-3.78604l0.89169,0l0.13522,0.48383a2.24019,2.07403 0 0 1 0.60299,-0.41278a1.61162,1.49208 0 0 1 0.7309,-0.15225a1.20963,1.11991 0 0 1 1.19136,0.58871a2.03189,1.88118 0 0 1 0.62492,-0.43308a1.76146,1.6308 0 0 1 0.75648,-0.15564a1.32658,1.22818 0 0 1 0.99767,0.33834a1.38139,1.27893 0 0 1 0.36545,0.94397l0,2.59508l-1.13654,0l0,-2.47666a0.69435,0.64285 0 0 0 -0.14252,-0.42631a0.50797,0.47029 0 0 0 -0.41296,-0.15225a1.09634,1.01502 0 0 0 -0.46777,0.1015a1.19136,1.10299 0 0 0 -0.43854,0.30112l0,2.65936l-1.1402,0l0,-2.47666a0.69435,0.64285 0 0 0 -0.14252,-0.42631a0.52259,0.48383 0 0 0 -0.41661,-0.15225a0.98671,0.91352 0 0 0 -0.46777,0.11504a1.23521,1.14359 0 0 0 -0.39103,0.28082l0,2.64244z" class="cls-2"/>
   <path stroke="null" id="svg_77" d="m211.34851,33.85356l-2.97539,0l0,0.03045a0.89982,0.76127 0 0 0 0.37592,0.67668a1.63567,1.38382 0 0 0 0.9638,0.22331a2.54748,2.15523 0 0 0 0.66386,-0.06428a3.29533,2.78793 0 0 0 0.51989,-0.14887l0.22795,0.73758a3.32332,2.81161 0 0 1 -0.63987,0.17932a4.04717,3.42401 0 0 1 -0.91181,0.07444a3.19935,2.70673 0 0 1 -0.95181,-0.11504a2.15556,1.82366 0 0 1 -0.77984,-0.33834a1.99959,1.69171 0 0 1 -0.52789,-0.60563a2.4595,2.0808 0 0 1 -0.19996,-0.87292a2.87941,2.43606 0 0 1 0.15997,-0.82217a2.11957,1.79321 0 0 1 0.45591,-0.62931a2.04758,1.73231 0 0 1 0.70786,-0.40939a2.35552,1.99283 0 0 1 0.91981,-0.14887a1.92361,1.62742 0 0 1 1.4517,0.47029a2.11957,1.79321 0 0 1 0.53989,1.30938l0,0.45338zm-1.27574,-0.72405a1.43171,1.21126 0 0 0 -0.04399,-0.29436a0.79984,0.67668 0 0 0 -0.13597,-0.25037a0.67186,0.56841 0 0 0 -0.23595,-0.16917a0.69586,0.58871 0 0 0 -0.34393,-0.06428a0.79984,0.67668 0 0 0 -0.61987,0.21315a1.14377,0.96766 0 0 0 -0.29194,0.58195l1.67166,-0.01692z" class="cls-2"/>
   <path stroke="null" id="svg_78" d="m213.29669,35.48098l-1.1402,0l0,-3.78604l0.89169,0l0.13522,0.48383a2.19269,2.03005 0 0 1 0.62126,-0.41616a1.76146,1.6308 0 0 1 0.75282,-0.14887a1.39601,1.29246 0 0 1 1.03787,0.33834a1.46179,1.35336 0 0 1 0.36545,0.99472l0,2.53079l-1.1402,0l0,-2.42252a0.76744,0.71052 0 0 0 -0.15349,-0.46353a0.56644,0.52443 0 0 0 -0.45316,-0.16917a1.00864,0.93382 0 0 0 -0.46777,0.11504a1.49468,1.38382 0 0 0 -0.44219,0.31127l-0.00731,2.63229z" class="cls-2"/>
   <path stroke="null" id="svg_79" d="m219.39601,32.45621l-1.09634,0l0,1.73569a0.50066,0.46353 0 0 0 0.13156,0.37218a0.55913,0.51766 0 0 0 0.36545,0.09812a1.96976,1.82366 0 0 0 0.36545,-0.03045a1.09634,1.01502 0 0 0 0.2887,-0.08797l0.17176,0.73758a2.26578,2.09771 0 0 1 -0.43488,0.12857a2.83222,2.62214 0 0 1 -0.61761,0.0609a1.53488,1.42103 0 0 1 -1.06345,-0.27406a1.15481,1.06916 0 0 1 -0.31794,-0.82217l0,-1.92854l-0.6505,0l0,-0.76127l0.63588,0l0,-1.16728l1.13289,0l0,1.16728l1.09634,0l-0.00731,0.77142z" class="cls-2"/>
   <path stroke="null" id="svg_80" d="m224.20531,33.5592a2.37541,2.19922 0 0 1 -0.1608,0.84247a1.9186,1.77629 0 0 1 -1.12558,1.01502a2.29136,2.1214 0 0 1 -0.82957,0.13872a2.43754,2.25674 0 0 1 -0.82957,-0.12519a1.86013,1.72216 0 0 1 -0.66146,-0.37556a1.88206,1.74246 0 0 1 -0.44219,-0.5921a2.33156,2.15862 0 0 1 -0.1608,-0.82217a2.46677,2.2838 0 0 1 0.16445,-0.86277a2.00265,1.85411 0 0 1 0.4495,-0.63608a2.0392,1.88794 0 0 1 0.67242,-0.39248a2.40465,2.22628 0 0 1 0.83322,-0.13534a2.45581,2.27365 0 0 1 0.82957,0.12857a1.8784,1.73907 0 0 1 0.65781,0.36879a1.82724,1.69171 0 0 1 0.43854,0.60901a2.40465,2.22628 0 0 1 0.16445,0.83909zm-1.17309,0.0406a2.04285,1.89133 0 0 0 -0.07674,-0.55488a1.14385,1.05901 0 0 0 -0.20831,-0.37556a0.78571,0.72743 0 0 0 -0.29967,-0.20977a0.899,0.83232 0 0 0 -0.36545,-0.06767a0.91362,0.84585 0 0 0 -0.34352,0.0609a0.7309,0.67668 0 0 0 -0.29236,0.19962a1.09634,1.01502 0 0 0 -0.20465,0.36879a2.14152,1.98268 0 0 0 -0.07674,0.57856a1.96245,1.81689 0 0 0 0.07674,0.53796a1.09634,1.01502 0 0 0 0.21196,0.36879a0.8588,0.7951 0 0 0 0.29967,0.21315a0.81495,0.7545 0 0 0 0.34718,0.07105a0.98671,0.91352 0 0 0 0.34352,-0.05752a0.7309,0.67668 0 0 0 0.2887,-0.203a1.1402,1.05562 0 0 0 0.20831,-0.36879a2.06113,1.90824 0 0 0 0.09136,-0.56165z" class="cls-2"/>
   <path stroke="null" id="svg_81" d="m227.49068,32.59831a2.30232,2.13155 0 0 0 -0.97575,-0.21992a0.80398,0.74435 0 0 0 -0.42392,0.08459a0.29236,0.27067 0 0 0 -0.14983,0.24022a0.32525,0.30112 0 0 0 0.13156,0.24699a1.90398,1.76276 0 0 0 0.53721,0.20639l0.25581,0.07105a1.7578,1.62742 0 0 1 0.80764,0.41278a1.05614,0.97781 0 0 1 0.27409,0.69698a1.16578,1.07931 0 0 1 -0.46777,0.89999a2.0392,1.88794 0 0 1 -1.26445,0.33834a3.05514,2.82853 0 0 1 -1.39966,-0.27067l0.25947,-0.77818a2.84684,2.63568 0 0 0 0.52259,0.19624a1.92591,1.78306 0 0 0 0.55548,0.07444a0.94286,0.87292 0 0 0 0.50432,-0.09812a0.32525,0.30112 0 0 0 0.15714,-0.25714a0.31794,0.29436 0 0 0 -0.15349,-0.26052a2.47043,2.28719 0 0 0 -0.58472,-0.203l-0.26678,-0.07105a1.65548,1.53269 0 0 1 -0.75282,-0.41954a1.23521,1.14359 0 0 1 0.17907,-1.53945a1.76877,1.63757 0 0 1 1.17674,-0.33834a3.1392,2.90635 0 0 1 1.31927,0.24699l-0.2412,0.74097z" class="cls-2"/>
   <path stroke="null" id="svg_82" d="m15.51924,26.79748l-9.88902,0l0,-20.65911l16.62056,0c7.36012,0 12.11459,2.67289 12.11459,6.80742c0,4.37137 -4.51328,6.98336 -12.05977,6.98336l-6.78636,0l0,6.86832zm-9.43586,-0.41954l8.98636,0l0,-6.86494l7.21759,0c7.27972,0 11.62855,-2.45636 11.62855,-6.5672c0,-3.88077 -4.57906,-6.38788 -11.66509,-6.38788l-16.16741,0l0,19.82002zm14.691,-10.89797l-5.70464,0l0,-4.91271l5.70464,0c3.52657,0 4.26477,1.32291 4.26477,2.43267s-0.7382,2.48004 -4.26477,2.48004zm-5.25514,-0.42293l5.25514,0c2.51793,0 3.81527,-0.67668 3.81527,-2.05711c0,-1.66464 -2.07574,-2.03005 -3.81527,-2.03005l-5.25514,0l0,4.08716z" class="cls-2"/>
   <path stroke="null" id="svg_83" d="m72.23672,26.79748l-10.69665,0l-1.97707,-3.77589l-11.32888,0l-1.82724,3.77589l-10.03154,0l11.25213,-20.65911l12.61891,0l11.99034,20.65911zm-10.41161,-0.41954l9.65878,0l-11.50429,-19.82002l-12.05977,0l-10.8136,19.82002l8.99001,0l1.82724,-3.7725l11.9136,0l1.98804,3.7725zm-3.96511,-8.03899l-8.06178,0l0.14618,-0.29774c1.46179,-2.92327 2.79567,-5.84315 3.4681,-7.61944l0.05116,-0.13872l0.45681,0l0.05847,0.12857c0.84418,1.95223 2.02823,4.37475 3.72757,7.62621l0.15349,0.30112zm-7.35646,-0.41954l6.64018,0c-1.52757,-2.93003 -2.62757,-5.17662 -3.43886,-7.01719c-0.68339,1.74246 -1.8784,4.3646 -3.20132,7.01719z" class="cls-2"/>
   <path stroke="null" id="svg_84" d="m93.34133,27.25762c-9.99134,0 -16.44515,-4.23941 -16.44515,-10.79985c0,-2.94695 1.48006,-5.61985 4.16976,-7.52809c2.99302,-2.12817 7.37839,-3.25146 12.68104,-3.25146c10.30928,0 14.77871,3.83002 15.51691,7.41644l0.05116,0.25037l-9.98769,0l-0.05482,-0.1421c-0.64319,-1.75261 -2.51793,-2.63906 -5.56942,-2.63906c-4.04916,0 -6.37341,2.09433 -6.37341,5.7518c0,1.80336 0.62126,5.99202 6.39899,5.99202c3.79335,0 4.9372,-1.28231 5.60962,-2.67289l0.06213,-0.1218l9.86709,0l-0.09502,0.28082c-1.48737,4.80783 -7.11527,7.46381 -15.83119,7.46381zm0.40199,-21.16324c-12.10363,0 -16.40129,5.58263 -16.40129,10.36339c0,6.30668 6.28205,10.38369 15.9993,10.38369c8.33221,0 13.75545,-2.45297 15.32322,-6.91231l-8.9754,0c-1.00133,1.959 -2.79567,2.79808 -5.96045,2.79808c-6.18338,0 -6.85214,-4.48302 -6.85214,-6.42848c0,-3.92137 2.4887,-6.17134 6.82656,-6.17134c3.1392,0 5.18936,0.96089 5.94218,2.78116l9.11427,0c-0.86246,-3.33266 -5.22225,-6.81419 -15.01625,-6.81419z" class="cls-2"/>
   <path stroke="null" id="svg_85" d="m114.28879,41.56607l-113.28879,0l0,-40.11372l113.28879,0l0,40.11372zm-112.83563,-0.41616l112.38248,0l0,-39.28817l-112.38248,0l0,39.28817z" class="cls-2"/>
   <path stroke="null" id="svg_86" d="m10.97307,35.38457l-3.3475,0l0,1.76276l3.69468,0l-0.17907,1.22818l-4.98836,0l0,-6.93599l4.97009,0l0,1.22818l-3.49733,0l0,1.4887l3.3475,0l0,1.22818z" class="cls-2"/>
   <path stroke="null" id="svg_87" d="m12.61393,38.37551l0,-6.93599l1.8784,0c0.87342,1.55975 2.49235,4.36798 2.81395,5.12248l0.01827,0c-0.07674,-0.72405 -0.07674,-1.92854 -0.07674,-3.06537l0,-2.05711l1.37408,0l0,6.93599l-1.78338,0c-0.75282,-1.35336 -2.55813,-4.58114 -2.89069,-5.38301l0,0c0.05116,0.60901 0.06578,2.03005 0.06578,3.27514l0,2.10787l-1.39966,0z" class="cls-2"/>
   <path stroke="null" id="svg_88" d="m22.19597,38.37551l-2.48504,-6.93599l1.62624,0l1.04153,3.20409c0.31794,0.97104 0.55913,1.79321 0.7309,2.50034l0.02193,0c0.14252,-0.64623 0.41661,-1.49208 0.7309,-2.47666l1.09634,-3.22777l1.5495,0l-2.53986,6.93599l-1.77242,0z" class="cls-2"/>
   <path stroke="null" id="svg_89" d="m28.17835,36.77515l-0.54452,1.60035l-1.49103,0l2.37906,-6.93599l1.90398,0l2.48139,6.93599l-1.57508,0l-0.57375,-1.60035l-2.58006,0zm2.23289,-1.23156c-0.49701,-1.46163 -0.81129,-2.39884 -0.98305,-3.02139l0,0c-0.17176,0.67668 -0.52259,1.77291 -0.92093,3.02139l1.90398,0z" class="cls-2"/>
   <path stroke="null" id="svg_90" d="m35.15474,36.34546c0.1608,0.67668 0.66511,1.01502 1.46179,1.01502s1.15481,-0.31804 1.15481,-0.82555c0,-0.56503 -0.33987,-0.80864 -1.53853,-1.08608c-1.90398,-0.44323 -2.37541,-1.13006 -2.37541,-2.06726c0,-1.20788 0.91362,-2.03005 2.55813,-2.03005c1.86013,0 2.60199,0.99134 2.70431,2.00636l-1.50199,0c-0.07309,-0.42631 -0.31063,-0.88984 -1.21329,-0.88984c-0.61761,0 -0.98671,0.25037 -0.98671,0.74435s0.29601,0.67668 1.4289,0.9372c2.0392,0.47368 2.48504,1.22479 2.48504,2.2026c0,1.26878 -0.96844,2.13493 -2.82126,2.13493c-1.77608,0 -2.71162,-0.86615 -2.87973,-2.12817l1.52392,-0.01353z" class="cls-2"/>
   <path stroke="null" id="svg_91" d="m45.4823,35.38457l-3.35116,0l0,1.76276l3.69468,0l-0.17907,1.22818l-4.98471,0l0,-6.93599l4.96643,0l0,1.22818l-3.49733,0l0,1.4887l3.35116,0l0,1.22818z" class="cls-2"/>
   <path stroke="null" id="svg_92" d="m48.27066,36.34546c0.15714,0.67668 0.66146,1.01502 1.46179,1.01502s1.15481,-0.31804 1.15481,-0.82555c0,-0.56503 -0.33621,-0.80864 -1.53488,-1.08608c-1.90764,-0.44323 -2.37906,-1.13006 -2.37906,-2.06726c0,-1.20788 0.91362,-2.03005 2.55813,-2.03005c1.86013,0 2.60199,0.99134 2.70066,2.00636l-1.52757,0c-0.07309,-0.42631 -0.31063,-0.88984 -1.21329,-0.88984c-0.61395,0 -0.98671,0.25037 -0.98671,0.74435s0.29967,0.67668 1.4289,0.9372c2.0392,0.47368 2.48504,1.22479 2.48504,2.2026c0,1.26878 -0.96844,2.13493 -2.8176,2.13493c-1.77973,0 -2.71528,-0.86615 -2.88338,-2.12817l1.55315,-0.01353z" class="cls-2"/>
   <path stroke="null" id="svg_93" d="m57.97695,32.66769l-2.12691,0l0,-1.22818l5.76311,0l0,1.22818l-2.1196,0l0,5.70781l-1.51661,0l0,-5.70781z" class="cls-2"/>
   <path stroke="null" id="svg_94" d="m67.58457,35.38457l-3.36212,0l0,1.76276l3.69468,0l-0.17907,1.22818l-4.9774,0l0,-6.93599l4.97009,0l0,1.22818l-3.5083,0l0,1.4887l3.35116,0l0.01096,1.22818zm0.04751,-5.94804l-1.79435,1.39735l-1.36312,0l1.39236,-1.39735l1.76511,0z" class="cls-2"/>
   <path stroke="null" id="svg_95" d="m75.2809,36.23719c-0.28139,1.29585 -1.26445,2.23643 -3.0186,2.23643c-2.22192,0 -3.27076,-1.55637 -3.27076,-3.5289c0,-1.90148 1.09634,-3.60672 3.34385,-3.60672c1.86378,0 2.76644,1.08608 2.92358,2.24659l-1.49834,0a1.39601,1.29246 0 0 0 -1.46179,-1.06916c-1.24618,0 -1.72857,1.11314 -1.72857,2.36839c0,1.17404 0.41661,2.40899 1.77242,2.40899a1.42159,1.31615 0 0 0 1.43256,-1.06239l1.50564,0.00677z" class="cls-2"/>
   <path stroke="null" id="svg_96" d="m76.64768,38.37551l0,-6.93599l1.87475,0c0.87707,1.55975 2.49235,4.36798 2.81395,5.12248l0,0c-0.07674,-0.72405 -0.07674,-1.92854 -0.07674,-3.06537l0,-2.05711l1.37408,0l0,6.93599l-1.74684,0c-0.75282,-1.35336 -2.55813,-4.58114 -2.89435,-5.38301l-0.01827,0c0.05116,0.60901 0.06944,2.03005 0.06944,3.27514l0,2.10787l-1.39601,0z" class="cls-2"/>
   <path stroke="null" id="svg_97" d="m86.06892,31.43952l0,6.93599l-1.51661,0l0,-6.93599l1.51661,0z" class="cls-2"/>
   <path stroke="null" id="svg_98" d="m93.89315,36.23719c-0.28505,1.29585 -1.2681,2.23643 -3.02225,2.23643c-2.22192,0 -3.27076,-1.55637 -3.27076,-3.5289c0,-1.90148 1.09634,-3.60672 3.34385,-3.60672c1.86378,0 2.77009,1.08608 2.92358,2.24659l-1.50564,0a1.39601,1.29246 0 0 0 -1.46179,-1.06916c-1.24983,0 -1.73222,1.11314 -1.73222,2.36839c0,1.17404 0.41661,2.40899 1.77242,2.40899a1.41794,1.31276 0 0 0 1.42159,-1.05562l1.53123,0z" class="cls-2"/>
   <path stroke="null" id="svg_99" d="m101.81971,34.88383c0,1.93193 -1.16943,3.59318 -3.44617,3.59318c-2.19269,0 -3.3475,-1.58005 -3.3475,-3.5695s1.2681,-3.5695 3.44617,-3.5695c2.05016,0 3.3475,1.42442 3.3475,3.54581zm-5.22956,0c0,1.35336 0.59933,2.36839 1.82724,2.36839c1.34485,0 1.82724,-1.11653 1.82724,-2.36839c0,-1.31276 -0.54452,-2.3447 -1.84917,-2.3447s-1.80531,0.98796 -1.80531,2.33794l0,0.00677z" class="cls-2"/>
   <path stroke="null" id="svg_100" d="m104.3815,36.34546c0.1608,0.67668 0.66511,1.01502 1.46179,1.01502s1.15481,-0.31804 1.15481,-0.82555c0,-0.56503 -0.33621,-0.80864 -1.53488,-1.08608c-1.90398,-0.44323 -2.37541,-1.13006 -2.37541,-2.06726c0,-1.20788 0.90996,-2.03005 2.55813,-2.03005c1.86013,0 2.60199,0.99134 2.70066,2.00636l-1.52392,0c-0.07309,-0.42631 -0.31429,-0.88984 -1.21694,-0.88984c-0.61395,0 -0.98305,0.25037 -0.98305,0.74435s0.29601,0.67668 1.4289,0.9372c2.03554,0.47368 2.48139,1.22479 2.48139,2.2026c0,1.26878 -0.96478,2.13493 -2.8176,2.13493c-1.77973,0 -2.71528,-0.86615 -2.88338,-2.12817l1.5495,-0.01353z" class="cls-2"/>
  </g>
 </g>
</svg>